<?xml version="1.0" standalone="no"?>
<!DOCTYPE svg PUBLIC "-//W3C//DTD SVG 1.1//EN" "http://www.w3.org/Graphics/SVG/1.1/DTD/svg11.dtd" >
<svg xmlns="http://www.w3.org/2000/svg">
<metadata>Generated by IcoMoon</metadata>
<defs>
<font id="icomoon" horiz-adv-x="1024">
<font-face units-per-em="1024" ascent="960" descent="-64" />
<missing-glyph horiz-adv-x="1024" />
<glyph unicode="&#x20;" horiz-adv-x="512" d="" />
<glyph unicode="&#xe900;" d="M993.608 750.767l-460.816 204.844c-6.116 2.785-13.264 4.408-20.792 4.408s-14.676-1.623-21.114-4.539l0.322 0.131-460.816-204.844c-18.044-8.193-30.367-26.055-30.367-46.795s12.323-38.602 30.046-46.664l0.321-0.131 460.816-204.844c6.117-2.778 13.265-4.398 20.792-4.398s14.674 1.619 21.115 4.528l-0.323-0.131 460.816 204.844c18.044 8.193 30.367 26.055 30.367 46.795s-12.323 38.602-30.046 46.664l-0.321 0.131z" />
<glyph unicode="&#xe901;" d="M512.055 191.973c-7.507 0.002-14.636 1.618-21.060 4.519l0.323-0.13-460.816 204.844c-17.178 8.515-28.78 25.93-28.78 46.054 0 28.298 22.94 51.238 51.238 51.238 6.891 0 13.464-1.36 19.465-3.827l-0.341 0.124 439.97-195.518 439.97 195.518c5.66 2.343 12.234 3.703 19.124 3.703 28.298 0 51.238-22.94 51.238-51.238 0-20.124-11.602-37.539-28.481-45.92l-0.298-0.134-460.816-204.844c-6.101-2.771-13.23-4.387-20.736-4.389h-0.001z" />
<glyph unicode="&#xe902;" d="M512.055-64c-7.507 0.002-14.636 1.618-21.060 4.519l0.323-0.13-460.816 204.844c-17.178 8.515-28.78 25.93-28.78 46.054 0 28.298 22.94 51.238 51.238 51.238 6.891 0 13.464-1.36 19.465-3.827l-0.341 0.124 439.97-195.518 439.97 195.518c5.66 2.343 12.234 3.703 19.124 3.703 28.298 0 51.238-22.94 51.238-51.238 0-20.124-11.602-37.539-28.481-45.92l-0.298-0.134-460.816-204.844c-6.101-2.771-13.23-4.387-20.736-4.389h-0.001z" />
<glyph unicode="&#xe903;" glyph-name="36" d="M62 808h105.356v-105.356h-105.356v105.356zM263.937 808h698.063v-105.356h-698.063v105.356zM62 500.763h105.356v-105.356h-105.356v105.356zM263.937 500.763h698.063v-105.356h-698.063v105.356zM62 193.356h105.356v-105.356h-105.356v105.356zM263.937 193.356h698.063v-105.356h-698.063v105.356z" />
<glyph unicode="&#xe904;" glyph-name="37" d="M0 413.389l56.525 79.872 265.83-203.776 647.168 527.155 54.477-52.224-697.139-685.056-326.861 334.029z" />
<glyph unicode="&#xe905;" glyph-name="38" d="M785.725-53.133c6.995 6.64 11.346 16.006 11.346 26.389s-4.352 19.749-11.33 26.374l-0.016 0.015-465.447 448.499 465.447 448.499c6.995 6.64 11.346 16.006 11.346 26.389s-4.352 19.749-11.33 26.374l-0.016 0.015c-7.115 6.761-16.759 10.92-27.375 10.92s-20.259-4.159-27.392-10.936l0.017 0.016-492.822-474.888c-6.995-6.64-11.346-16.006-11.346-26.389s4.352-19.749 11.33-26.374l0.016-0.015 492.822-474.888c7.115-6.761 16.759-10.92 27.375-10.92s20.259 4.159 27.392 10.936l-0.017-0.016z" />
<glyph unicode="&#xe906;" d="M1024.099 447.95c0-282.797-229.252-512.050-512.050-512.050s-512.050 229.252-512.050 512.050c0 282.797 229.252 512.050 512.050 512.050s512.050-229.252 512.050-512.050z" />
<glyph unicode="&#xe907;" d="M501.743 668.844h36.469c4.816 0 8.721-3.904 8.721-8.721v-450.013c0-4.816-3.904-8.721-8.721-8.721h-36.469c-4.816 0-8.721 3.904-8.721 8.721v450.013c0 4.816 3.904 8.721 8.721 8.721z" />
<glyph unicode="&#xe908;" d="M269.255 423.275v33c0 4.816 3.904 8.721 8.721 8.721h488.365c4.816 0 8.721-3.904 8.721-8.721v-33c0-4.816-3.904-8.721-8.721-8.721h-488.365c-4.816 0-8.721 3.904-8.721 8.721z" />
<glyph unicode="&#xe909;" glyph-name="3" d="M884.9 485.5c-17.6 177.1-158.4 317.9-335.4 335.5v75c218.5-18.1 392.5-192 410.5-410.4h-75.1zM367.4 485.5h-76.9c15.9 93.9 90 167.8 184 183.6v-76.5c-52.5-13.6-93.5-54.8-107.1-107.1zM139.1 485.5h-75.1c18.1 218.4 192.1 392.3 410.5 410.4v-75c-177.1-17.5-317.8-158.3-335.4-335.4zM139.1 410.5c17.6-177.1 158.4-317.9 335.4-335.5v-75c-218.4 18.2-392.4 192.1-410.5 410.5h75.1zM474.5 303.4v-76.5c-94 15.9-168.2 89.7-184 183.6h76.9c13.6-52.3 54.6-93.5 107.1-107.1zM656.6 410.5h76.9c-15.9-93.9-90-167.8-184-183.6v76.5c52.5 13.6 93.5 54.8 107.1 107.1zM733.5 485.5h-76.9c-13.6 52.3-54.6 93.5-107.1 107.1v76.5c94-15.8 168.1-89.7 184-183.6zM884.9 410.5h75.1c-18.1-218.4-192.1-392.4-410.5-410.4v75c177.1 17.5 317.8 158.3 335.4 335.4z" />
<glyph unicode="&#xe90a;" d="M978.572 452.655c-10.135 243.306-200.494 439.081-440.54 457.719l-1.642 0.102v20.666c0.119 0.97 0.186 2.092 0.186 3.23 0 15.527-12.587 28.113-28.113 28.113s-28.113-12.587-28.113-28.113c0-1.138 0.068-2.261 0.199-3.363l-0.013 0.133v-20.666c-246.691-14.895-443.299-226.025-443.299-483.514-0.187-0.868-0.293-1.864-0.293-2.886s0.107-2.018 0.31-2.979l-0.017 0.094c0.714-15.163 13.181-27.185 28.456-27.185 0.141 0 0.283 0.001 0.423 0.003h-0.021c15.552 0.102 28.119 12.733 28.119 28.299 0 0.197-0.002 0.393-0.006 0.588v-0.029 4.096c0 55.855 28.858 145.222 193.443 145.222s191.767-88.25 193.443-143.546v-284.672c-0.119-0.97-0.186-2.092-0.186-3.23 0-15.527 12.587-28.113 28.113-28.113s28.113 12.587 28.113 28.113c0 1.138-0.068 2.261-0.199 3.363l0.013-0.133v292.119c4.096 55.855 37.236 136.099 192.512 136.099 168.495 0 193.443-93.091 193.443-148.945-0.119-0.97-0.186-2.092-0.186-3.23 0-15.527 12.587-28.113 28.113-28.113s28.113 12.587 28.113 28.113c0 1.138-0.068 2.261-0.199 3.363l0.013-0.133v22.342c-0.279 2.753-0.871 5.277-1.745 7.664l0.070-0.217zM729.833 629.155c-105.937 0-183.017-35.561-221.556-98.118-38.54 62.743-115.619 98.118-221.556 98.118-3.524 0.148-7.659 0.232-11.814 0.232-55.65 0-107.775-15.090-152.507-41.401l1.412 0.768c61.74 154.989 209.989 262.78 383.568 264.005l0.153 0.001c173.573-1.577 321.609-109.232 382.543-261.205l0.991-2.8c-42.792 25.537-94.377 40.635-149.488 40.635-4.131 0-8.242-0.085-12.331-0.253l0.586 0.019z" />
<glyph unicode="&#xe90b;" d="M475.508 49.199c0-16.863 13.67-30.534 30.534-30.534s30.534 13.67 30.534 30.534v0 0c0 16.863-13.67 30.534-30.534 30.534s-30.534-13.67-30.534-30.534v0z" />
<glyph unicode="&#xe90c;" d="M398.429-24.343c0-16.863 13.67-30.534 30.534-30.534s30.534 13.67 30.534 30.534v0 0c0 16.863-13.67 30.534-30.534 30.534s-30.534-13.67-30.534-30.534v0z" />
<glyph unicode="&#xe90d;" d="M315.020 49.199c0-16.863 13.67-30.534 30.534-30.534s30.534 13.67 30.534 30.534v0c0 16.863-13.67 30.534-30.534 30.534s-30.534-13.67-30.534-30.534v0z" />
<glyph unicode="&#xe90e;" glyph-name="39" d="M512.598 864c4.4 0 8.9-1.7 12.2-5.1l368.9-369.6c10.7-10.7 16.7-25 16.7-40.3s-6.001-29.7-16.8-40.401l-368.7-369.5c-6.8-6.8-17.7-6.8-24.5 0s-6.8 17.7 0 24.5l368.8 369.5c4.3 4.2 6.6 9.899 6.6 15.9s-2.3 11.7-6.5 15.8l-368.8 369.699c-6.7 6.8-6.7 17.7 0 24.5 3.3 3.3 7.7 5 12.1 5.001z" />
<glyph unicode="&#xe90f;" glyph-name="40" d="M943.5 62.6l-204.4 204.3c55.9 66 89.8 151.4 89.8 244.7 0 209.4-169.8 379.2-379.2 379.2s-379.2-169.8-379.2-379.2c0-209.4 169.8-379.2 379.2-379.2 93.3 0 178.7 33.9 244.7 89.8l204.4-204.4c13.8-13.8 35-15 47.4-2.7 12.4 12.4 11.2 33.6-2.7 47.5zM449.7 195.7c-174.5 0-316 141.5-316 316s141.5 316 316 316 316-141.5 316-316c0-174.6-141.4-316-316-316z" />
<glyph unicode="&#xe910;" glyph-name="41" d="M889.521 415.4c-9.941 13.254-28.743 15.941-42 6l-335.429-251.571-335.428 251.571c-13.254 9.941-32.058 7.256-42-6-9.941-13.255-7.255-32.059 6-42l353.428-265.071c5.334-4 11.667-6 18-6s12.667 2 18.001 6l353.428 265.071c13.254 9.942 15.941 28.746 6 42zM140.479 739.669l353.429-265.072c5.334-4 11.666-6 18-6s12.667 2 18 6l353.429 265.072c13.255 9.941 15.941 28.745 6 42s-28.743 15.941-42 6l-335.429-251.571-335.429 251.571c-13.254 9.941-32.059 7.255-42-6-9.94-13.254-7.254-32.058 6-42z" />
<glyph unicode="&#xe911;" glyph-name="42" d="M319.798-4.853c-6.697 0-13.352 2.441-18.571 7.131-8.771 7.889-11.59 20.456-7.049 31.341l31.72 75.939c5.287 11.307 9.476 24.943 9.841 31.232-6.859 10.734-5.585 25.173 3.795 34.553 10.844 10.831 28.426 10.831 39.27-0.014 23.438-23.45 8.676-65.431-2.209-88.354l-0.704-1.695 126.095 69.039c4.093 2.237 8.676 3.416 13.338 3.416 215.602 0 390.999 154.587 390.999 344.591 0 176.183-182.716 330.724-390.999 330.724-206.656 0-385.726-151.83-391.026-331.544-3.010-102.089 50.196-199.649 145.953-267.67 12.499-8.864 15.44-26.188 6.561-38.701-8.893-12.483-26.203-15.44-38.715-6.545-111.158 78.945-172.863 193.599-169.298 314.556 6.155 208.919 210.641 385.428 446.523 385.428 242.035 0 446.524-176.882 446.524-386.248 0-218.471-196.421-396.617-439.325-400.062l-189.386-103.7c-4.188-2.292-8.771-3.418-13.339-3.418zM586.005 553.275h-249.859c-7.673 0-13.88 6.216-13.88 13.881s6.208 13.881 13.88 13.881h249.859c7.672 0 13.88-6.216 13.88-13.881s-6.208-13.881-13.88-13.881zM697.051 553.275h-41.642c-7.672 0-13.88 6.216-13.88 13.881s6.208 13.881 13.88 13.881h41.642c7.673 0 13.881-6.216 13.881-13.881s-6.208-13.881-13.881-13.881zM502.718 414.465h-152.691c-7.673 0-13.881 6.216-13.881 13.88 0 7.667 6.208 13.88 13.881 13.88h152.691c7.673 0 13.88-6.214 13.88-13.88s-6.207-13.88-13.88-13.88zM586.005 414.465h-27.762c-7.673 0-13.881 6.216-13.881 13.88 0 7.667 6.208 13.88 13.881 13.88h27.762c7.672 0 13.88-6.214 13.88-13.88s-6.208-13.88-13.88-13.88z" />
<glyph unicode="&#xe912;" glyph-name="43" d="M919.8 578.9l-364.6-398.7c-10.568-11.982-25.955-19.5-43.098-19.5-0.001 0-0.001 0-0.002 0v0c-16.5 0-32.2 7.1-43.1 19.5l-364.6 398.7c-17.8 18.8-23.3 46.2-14.1 70.4s31.4 41.1 57.2 43.4h728.9c25.9-2.2 48.2-19 57.4-43.3 9.3-24.3 3.8-51.6-14-70.5z" />
<glyph unicode="&#xe913;" glyph-name="44" d="M219.151 484.525h594.344v-64.837h-594.344v64.837zM484.984 152.125v594.344h64.837v-594.344h-64.837z" />
<glyph unicode="&#xe914;" glyph-name="18" d="M784.1 428.5c-14.6 16.5-37.1 24.8-67.7 24.8-26.3 0-47.4-5.6-63.1-16.8-17.1-12.1-27.3-30.3-30.7-54.7h24.8c2.5 17.1 9.9 29.7 22.3 37.8 10.9 8.1 26.1 12.2 45.4 12.2 42 0 63.1-20.6 63.1-61.8v-8l-55.5-0.4c-30.3 0-54.5-5.2-72.7-15.5-22.7-12.6-34.1-32.8-34.1-60.5 0-18.8 6.6-33.8 19.8-45 13.2-10.9 30.4-16.4 51.7-16.4 20.7 0 39.7 5.1 56.8 15.1 14.6 8.7 26.3 19.5 35.3 32.4v-41.6h24v140c-0.1 24.7-6.5 44.1-19.4 58.4zM778.2 316.3c0-17.4-8.4-33.5-25.2-48.3-17.7-15.1-37.8-22.7-60.5-22.7-15.7 0-28 3.8-37 11.4-9.2 7.6-13.9 17.4-13.9 29.4 0 36.4 27.5 54.8 82.4 55.1l54.2 0.4v-25.3zM398.7 670.9l-178.3-445h41.8l51.7 132.8h214.4l51.7-132.8h41.8l-178.2 445h-44.9zM326.4 391.1l94.1 238.7h1.9l93.5-238.7h-189.5zM511.9-0.6c-247.1 0-448.2 201.1-448.2 448.2s201.1 448.2 448.2 448.2 448.2-201.1 448.2-448.2-201-448.2-448.2-448.2zM511.9 873.9c-235.1 0-426.3-191.2-426.3-426.3s191.3-426.3 426.3-426.3 426.3 191.2 426.3 426.3-191.2 426.3-426.3 426.3z" />
<glyph unicode="&#xe915;" glyph-name="45" horiz-adv-x="1074" d="M536.531-12.372c-245.129 0-444.554 199.437-444.554 444.554s199.425 444.554 444.554 444.554 444.554-199.437 444.554-444.554-199.425-444.554-444.554-444.554zM536.531 852.040c-231.515 0-419.857-188.342-419.857-419.857s188.342-419.857 419.857-419.857 419.857 188.342 419.857 419.857-188.342 419.857-419.857 419.857zM242.63 432.176c0-162.316 131.583-293.9 293.9-293.9s293.9 131.583 293.9 293.9v0c0 162.316-131.583 293.9-293.9 293.9s-293.9-131.583-293.9-293.9v0z" />
<glyph unicode="&#xe916;" glyph-name="47" d="M1.571 164.405h42.969v-79.468h-42.969v79.468zM1.571 323.341h42.969v-79.467h-42.969v79.467zM45.029 9.034l-42.39-7.038c6.2-37.334 38.183-65.079 76.049-65.974l1.013 42.957c-17.267 0.408-31.848 13.048-34.672 30.054zM158.662-21.031h79.468v-42.969h-79.468v42.969zM1.571 482.278h42.969v-79.468h-42.969v79.468zM149.015 958.734h79.467v-42.969h-79.467v42.969zM625.824 958.734h79.468v-42.969h-79.468v42.969zM317.598-21.031h79.468v-42.969h-79.468v42.969zM307.951 958.734h79.468v-42.969h-79.468v42.969zM44.541 879.728c0 17.244 12.258 32.124 29.145 35.382l-8.138 42.192c-37.070-7.151-63.976-39.775-63.976-77.573v-0.11h42.969v0.11zM1.571 641.214h42.969v-79.468h-42.969v79.468zM1.571 800.15h42.969v-79.468h-42.969v79.468zM466.887 958.734h79.467v-42.969h-79.467v42.969zM978.46 492.035h42.969v-79.468h-42.969v79.468zM978.46 333.098h42.969v-79.468h-42.969v79.468zM978.46 15.004c0-17.278-12.286-32.164-29.213-35.396l8.058-42.206c37.156 7.094 64.124 39.73 64.124 77.601v0.221h-42.969v-0.221zM978.46 174.163h42.969v-79.468h-42.969v79.468zM978.46 809.907h42.969v-79.468h-42.969v79.468zM978.46 650.971h42.969v-79.468h-42.969v79.468zM635.472-21.031h79.468v-42.969h-79.468v42.969zM476.535-21.031h79.468v-42.969h-79.468v42.969zM784.76 958.734h79.468v-42.969h-79.468v42.969zM794.408-21.031h79.467v-42.969h-79.467v42.969zM977.959 885.769l42.376 7.119c-6.27 37.321-38.305 65.005-76.172 65.828l-0.933-42.959c17.269-0.376 31.875-12.987 34.73-29.988zM517.162 702.329h-42.967v-215.085h-215.085v-42.967h215.085v-215.085h42.967v215.085h215.085v42.967h-215.085z" />
<glyph unicode="&#xe917;" glyph-name="46" d="M511.775-1.55c-248.006 0-449.775 201.769-449.775 449.775s201.769 449.775 449.775 449.775c248.006 0 449.775-201.769 449.775-449.775s-201.769-449.775-449.775-449.775zM511.775 872.273c-233.794 0-424.047-190.255-424.047-424.047s190.255-424.047 424.047-424.047 424.047 190.255 424.047 424.047-190.255 424.047-424.047 424.047z" />
<glyph unicode="&#xe918;" glyph-name="48" d="M569.827-16.027l-12.708-7.218c-374.347 100.721-597.613 485.141-496.892 859.488l47.003 26.859 151.082-248.446-5.036-3.357c-26.859-13.429-35.253-47.003-20.145-72.184l152.761-265.232c13.211-26.456 45.979-34.984 71.025-20.816-1.443-11.784-2.182-23.787-2.182-35.941 0-94.946 45.123-179.435 115.091-233.153zM759.351 456.406c132.616-6.714 235.016-117.508 228.302-250.124-6.715-132.616-117.509-235.016-250.125-228.302-130.938 5.036-233.338 115.83-228.302 246.767 5.036 132.617 117.508 236.696 250.125 231.659zM752.636 260c-6.715 0-11.751-1.679-18.465-3.357l-72.184 77.219c-5.036 6.715-15.108 6.715-21.823 0-6.715-5.036-6.715-15.108 0-20.144l72.184-77.22c-3.358-5.036-5.036-11.751-5.036-16.787 0-23.501 18.465-43.646 41.967-43.646s43.646 18.466 43.646 41.968c0 8.393-1.679 16.787-6.715 23.501l104.079 97.364c3.357 3.358 3.357 8.394 0 13.43-3.358 3.357-10.073 3.357-13.43 0l-100.721-99.043c-6.715 3.358-15.108 6.715-23.502 6.715zM152.555 888.283l41.968 23.502c25.18 15.108 58.754 6.715 72.183-20.144l90.649-157.797c15.109-25.18 6.715-58.754-20.144-72.183l-36.931-21.823-147.725 248.446z" />
<glyph unicode="&#xe919;" glyph-name="49" d="M512.666 902.963c-253.798 0-460.262-206.438-460.262-460.262s206.438-460.262 460.262-460.262 460.262 206.438 460.262 460.262-206.464 460.262-460.262 460.262zM741.734 213.658c-6.682-6.707-17.485-6.707-24.166 0l-204.928 205.722-204.902-205.722c-6.656-6.707-17.485-6.707-24.166 0s-6.682 17.562 0 24.269l204.032 204.8-204.032 204.8c-6.682 6.707-6.682 17.562 0 24.269s17.485 6.707 24.166 0l204.902-205.722 204.902 205.722c6.656 6.707 17.485 6.707 24.166 0s6.682-17.562 0-24.269l-204.032-204.8 204.032-204.8c6.708-6.708 6.708-17.588 0.026-24.269z" />
<glyph unicode="&#xe91a;" d="M1024.099 447.95c0-282.797-229.252-512.050-512.050-512.050s-512.050 229.252-512.050 512.050c0 282.797 229.252 512.050 512.050 512.050s512.050-229.252 512.050-512.050z" />
<glyph unicode="&#xe91b;" d="M863.52 290.24l-285.28 1.76c-88.056 0-159.44 71.384-159.44 159.44s71.384 159.44 159.44 159.44v0h285.36c88.056 0 159.44-71.384 159.44-159.44s-71.384-159.44-159.44-159.44v0 0zM578.24 575.36c-0.952 0.026-2.073 0.041-3.197 0.041-68.881 0-124.72-55.839-124.72-124.72 0-66.403 51.894-120.686 117.34-124.505l0.337-0.016q4.96 0 9.84 0h285.28c67.465 1.763 121.483 56.873 121.483 124.6s-54.018 122.837-121.32 124.597l-0.163 0.003h-284.88z" />
<glyph unicode="&#xe91c;" d="M100.32-37.2c-0.072 0-0.157 0-0.242 0-55.076 0-99.761 44.489-100.078 99.49v773.63c0 55.273 44.807 100.080 100.080 100.080v0h819.92c0.072 0 0.157 0 0.242 0 55.076 0 99.761-44.489 100.078-99.49v-187.39h-41.76v187.76c0 32.342-26.218 58.56-58.56 58.56v0h-819.68c-32.342 0-58.56-26.218-58.56-58.56v0 0-774.56c0-32.342 26.218-58.56 58.56-58.56v0h819.68c32.342 0 58.56 26.218 58.56 58.56v0 187.36h41.92v-187.36c-0.317-55.032-45.002-99.521-100.078-99.521-0.141 0-0.282 0-0.423 0.001h0.022z" />
<glyph unicode="&#xe91d;" d="M501.92 450.48c-0.003-0.238-0.004-0.519-0.004-0.8 0-41.488 33.632-75.12 75.12-75.12s75.12 33.632 75.12 75.12c0 41.486-33.63 75.118-75.115 75.12v0c-0.119 0.001-0.26 0.001-0.401 0.001-41.126 0-74.493-33.226-74.719-74.299v-0.022z" />
<glyph unicode="&#xe91e;" glyph-name="21" d="M512-63.999c-281.056 0.527-508.693 228.489-508.693 509.618 0 281.455 228.164 509.619 509.619 509.619s509.619-228.164 509.619-509.619c0-209.815-126.796-390.016-307.942-468.157l-3.307-1.269c-58.576-25.411-126.798-40.193-198.473-40.193-0.289 0-0.578 0-0.868 0.001h0.045zM512 913.152c-0.007 0-0.016 0-0.026 0-256.896 0-465.152-208.256-465.152-465.152s208.256-465.152 465.152-465.152c256.896 0 465.152 208.256 465.152 465.152v0c-0.277 256.776-208.352 464.86-465.098 465.152h-0.028zM511.846 743.936c6.677 0.418 14.48 0.657 22.339 0.657 34.638 0 68.194-4.631 100.084-13.307l-2.666 0.618s-47.667-120.832-74.24-126.464c-13.409-3.75-28.993-6.313-45.034-7.146l-0.534-0.022c-16.504 0.754-31.992 2.585-47.117 5.444l2.061-0.324c-43.52 6.656-74.24 122.112-74.24 122.112s30.438 18.432 119.45 18.432zM511.949 794.624c-95.642 0-135.68-19.456-145.562-25.6-14.867-8.984-24.654-25.058-24.654-43.419 0-4.68 0.636-9.211 1.826-13.512l-0.084 0.355c7.336-26.159 15.328-48.1 24.729-69.276l-1.28 3.228c8.569-19.851 18.484-36.941 30.122-52.68l-0.503 0.712c14.469-21.040 36.447-36.020 61.99-41.112l0.627-0.104c15.437-2.943 33.584-4.964 52.080-5.614l0.63-0.018c20.22 0.661 39.453 3.61 57.847 8.598l-1.758-0.406c23.473 6.988 42.559 22.475 54.086 42.81l0.237 0.454c9.254 13.834 18.499 29.935 26.673 46.654l1.103 2.497c15.974 32.512 28.339 63.744 28.851 65.024 2.257 5.527 3.568 11.941 3.568 18.66 0 21.327-13.198 39.572-31.872 47.012l-0.342 0.12c-34.339 10.341-73.8 16.293-114.651 16.293-8.298 0-16.539-0.246-24.716-0.73l1.127 0.053zM553.446 545.536s72.781-302.336 53.76-340.736-95.155-87.552-95.155-87.552-77.619 46.336-95.462 87.552 54.938 340.736 54.938 340.736h81.92zM553.446 596.48h-81.92c-23.797-0.056-43.749-16.454-49.232-38.562l-0.073-0.35c-0.742-3.072-18.637-76.8-34.637-156.928-9.498-47.616-16.333-87.552-20.301-118.784-7.424-58.368-4.275-81.152 2.739-97.28 16.925-32.2 40.568-58.775 69.22-78.633l0.719-0.471c23.757-18.432 45.158-31.232 46.080-32 7.46-4.428 16.429-7.079 26.010-7.168h0.025c10.235 0.043 19.749 3.093 27.714 8.311l-0.194-0.119c17.121 11.247 31.675 21.942 45.659 33.31l-1.013-0.798c27.867 20.104 50.806 45.191 67.913 74.134l0.618 1.13c5.423 12.234 8.581 26.504 8.581 41.512 0 2.598-0.095 5.175-0.281 7.726l0.020-0.342c-0.49 17.868-1.907 34.863-4.216 51.574l0.274-2.422c-3.84 31.232-10.547 71.168-19.994 119.040-15.846 80.64-33.715 155.136-34.458 158.208-5.561 22.475-25.538 38.88-49.353 38.912h-0.004z" />
<glyph unicode="&#xe91f;" glyph-name="22" d="M512.064 949.056c-276.288 0-501.12-224.832-501.12-500.992 0-276.416 224.832-501.056 501.12-501.056 276.16 0 500.992 224.64 500.992 501.056 0 276.16-224.832 500.992-500.992 500.992zM796.672 205.376c-7.759-14.044-17.665-25.91-29.425-35.61l-0.207-0.166c-13.686-11.46-30.391-19.779-48.742-23.616l-0.73-0.128c-12.16-2.752-24.576-3.136-37.056-1.856-15.543 1.502-29.761 5.899-42.542 12.651l0.622-0.299c-15.142 7.983-27.847 18.602-37.957 31.371l-0.187 0.245c-7.335 9.506-13.563 20.408-18.182 32.12l-0.314 0.904c-14.656-3.264-28.8-6.656-43.136-9.6-6.598-1.56-16.021-3.306-25.551-4.721l-2.225-0.271c-7.68-1.152-15.36-1.856-23.040-2.24-12.672-0.64-25.344-1.6-38.016-1.344-21.24 0.196-41.494 4.169-60.203 11.279l1.195-0.399c-15.056 5.649-27.816 14.395-38.014 25.527l-0.066 0.073c-8.525 9.398-14.62 21.15-17.204 34.166l-0.076 0.458c-1.445 6.604-2.272 14.19-2.272 21.969 0 15.946 3.477 31.080 9.715 44.684l-0.275-0.669c5.824 13.12 13.568 24.896 22.912 35.648 13.12 15.104 27.904 28.736 44.736 39.68 13.632 8.768 27.392 17.216 41.408 25.216 18.525 10.274 40.54 20.325 63.353 28.728l3.399 1.096c15.36 5.76 30.016 13.184 43.776 22.208 11.584 7.488 22.72 15.68 32.064 25.792 11.904 12.608 20.928 26.88 25.536 43.968 1.32 4.661 2.080 10.014 2.080 15.545 0 9.587-2.281 18.641-6.331 26.649l0.155-0.338c-5.262 11.912-12.545 22.024-21.511 30.347l-0.057 0.053c-7.041 6.366-15.293 11.556-24.347 15.167l-0.549 0.193c-10.489 4.453-22.652 7.311-35.404 7.927l-0.244 0.009c-9.408 0.448-18.944 1.344-28.352 0.64-20.603-1.551-39.657-4.867-58.028-9.841l2.156 0.497c-2.432-0.704-3.072-1.472-2.88-4.608 1.152-10.688 2.24-21.568 1.472-32.192-1.26-17.547-6.52-33.631-14.866-47.666l0.274 0.498c-20.37-36.035-58.429-59.963-102.076-59.963-3.019 0-6.012 0.115-8.974 0.339l0.394-0.024c-19.172 1.406-36.736 7.171-52.064 16.3l0.544-0.3c-11.476 6.912-21.273 15.222-29.563 24.865l-0.133 0.159c-10.387 11.826-18.357 26.049-22.97 41.71l-0.198 0.786c-3.205 10.209-5.051 21.948-5.051 34.118 0 49.869 30.999 92.498 74.779 109.67l0.8 0.276c11.008 4.224 22.336 6.4 34.176 7.232 19.264 1.6 37.568-1.92 55.232-9.408 16.64-6.976 30.144-17.92 42.048-31.040 3.264-3.648 6.080-7.68 8.704-11.712 1.408-2.176 2.368-2.432 4.736-1.792 14.272 3.2 28.48 6.528 42.752 8.96 9.92 1.664 19.904 2.24 29.76 3.008 6.144 0.512 12.224 1.088 18.304 0.704 21.696-1.152 42.944-4.48 63.232-13.184 17.408-7.488 32.384-18.56 44.672-32.832s20.416-30.976 26.112-49.024c3.52-11.456 4.032-22.848 2.944-34.752-1.561-16.479-6.283-31.55-13.557-45.043l0.309 0.627c-5.568-10.88-12.608-20.736-20.736-30.016-14.975-16.499-32.348-30.466-51.642-41.444l-1.030-0.54c-16-9.344-32.832-16.96-50.24-23.424-9.984-3.648-19.648-7.936-29.312-12.16-22.508-10.127-41.685-20.96-59.752-33.299l1.32 0.851c-14.915-10.008-27.85-21.236-39.262-33.866l-0.162-0.182c-10.432-11.712-18.944-24.704-22.464-40.32-1.213-4.32-1.91-9.282-1.91-14.406 0-8.477 1.908-16.509 5.317-23.689l-0.143 0.335c4.224-7.409 10.444-13.258 17.931-16.916l0.245-0.108c11.456-6.272 23.68-9.728 36.544-11.136 8.704-0.768 17.344-2.24 25.984-1.984 12.416 0.256 24.896 1.472 37.376 2.88 25.088 2.24 49.344 8.384 73.856 14.4 4.608 1.152 4.992 1.984 5.12 6.848 0.384 14.72 3.904 28.864 9.856 42.368 7.104 16.256 17.536 29.76 30.656 41.152 14.217 12.816 31.995 21.948 51.672 25.747l0.68 0.109c7.488 1.344 15.232 2.88 22.848 2.88 25.728 0 49.344-7.232 70.4-22.4 14.272-10.24 25.536-22.848 33.984-38.272 9.362-16.361 14.882-35.962 14.882-56.852 0-3.96-0.198-7.873-0.586-11.73l0.040 0.486c-1.536-15.872-5.888-30.72-13.248-44.736zM331.328 700.48c-0.152 0.001-0.332 0.002-0.512 0.002-42.663 0-77.248-34.585-77.248-77.248 0-0.001 0-0.001 0-0.002v0c-0.002-0.21-0.003-0.457-0.003-0.705 0-42.557 34.499-77.056 77.056-77.056 0.136 0 0.272 0 0.408 0.001h-0.021c0.159-0.001 0.347-0.002 0.536-0.002 41.882 0 75.96 33.414 77.030 75.039l0.002 0.099c0.019 0.649 0.031 1.412 0.031 2.177 0 42.764-34.548 77.458-77.256 77.695h-0.023zM693.248 338.368c-0.114 0.001-0.249 0.001-0.384 0.001-42.805 0-77.505-34.7-77.505-77.505 0-42.67 34.482-77.286 77.1-77.504h0.021c43.136 0 77.568 33.6 77.888 77.248 0.002 0.19 0.003 0.415 0.003 0.64 0 42.592-34.528 77.12-77.12 77.12-0.001 0-0.002 0-0.003 0v0z" />
<glyph unicode="&#xe920;" d="M283.977 668.983c-43.829 0-79.36-35.531-79.36-79.36s35.531-79.36 79.36-79.36c43.829 0 79.36 35.531 79.36 79.36 0 0.032 0 0.064 0 0.096v-0.005c-0.104 43.769-35.584 79.217-79.355 79.269h-0.005zM283.977 564.571c-13.835 0-25.051 11.216-25.051 25.051s11.216 25.051 25.051 25.051c13.803 0 24.999-11.164 25.051-24.955v-0.005c0-0.054 0.001-0.119 0.001-0.183 0-13.836-11.216-25.051-25.051-25.051 0 0 0 0-0.001 0v0z" />
<glyph unicode="&#xe921;" d="M892.251 735.451c-84.389 74.971-201.143 116.297-329.143 116.297-60.005-0.768-117.714-9.195-172.634-24.345l4.771 1.123c-29.531 13.897-120.96 53.76-187.429 53.76-0.307 0.002-0.671 0.004-1.034 0.004-9.338 0-18.459-0.933-27.273-2.712l0.879 0.148-4.297-0.823-3.749-2.194c-27.429-15.726-43.063-35.474-45.714-58.789-4.663-36.571 22.126-66.926 47.451-92.251-27.213-27.739-50.553-59.419-69.053-94.073l-1.073-2.202c-21.179-39.26-35.443-85.268-39.854-134.118l-0.1-1.379-1.189-2.651c-0.139 0.001-0.304 0.002-0.469 0.002-16.842 0-31.732-8.356-40.752-21.148l-0.105-0.157c-14.537-19.109-19.931-76.434-20.206-78.903-4.206-46.263 1.737-80.731 17.829-102.4l1.646-2.194 2.011-1.829c18.201-16.603 42.52-26.772 69.215-26.772 1.381 0 2.757 0.027 4.125 0.081l-0.197-0.006c18.286-0.64 30.080-1.006 48.549-20.937 23.221-28.933 49.045-54.235 77.57-76.2l1.058-0.783c-6.506-13.682-10.306-29.731-10.306-46.667 0-12.073 1.931-23.694 5.5-34.573l-0.222 0.783 0.64-2.286 1.006-2.103c13.44-27.429 59.154-33.006 95.177-33.006 1.225-0.031 2.667-0.048 4.113-0.048 18.097 0 35.557 2.724 51.994 7.785l-1.25-0.331c2.281-7.347 6.053-13.66 10.991-18.855l-0.019 0.020c8.967-9.048 21.398-14.649 35.137-14.649 0.504 0 1.007 0.008 1.508 0.023l-0.073-0.002c7.919-1.022 17.080-1.605 26.377-1.605 1.656 0 3.307 0.019 4.954 0.055l-0.245-0.004c13.623 0 29.349 0.457 48.823 1.189h3.566l3.383 1.097c14.525 4.734 25.63 16.232 29.728 30.676l0.077 0.318c12.251-0.731 24.686-1.097 36.571-1.097 4.966-0.179 10.801-0.282 16.66-0.282 34.914 0 68.98 3.632 101.841 10.537l-3.209-0.564c-0.004-0.227-0.006-0.494-0.006-0.763 0-2.407 0.168-4.775 0.494-7.093l-0.031 0.267c2.013-16.324 14.193-29.308 29.929-32.507l0.243-0.041 9.143-2.011 4.754 2.194h1.097c3.749 0 9.143 0 14.537 0 7.954 0 17.097-0.64 26.514-0.64 27.429 0 58.331 2.469 74.971 20.389 22.857 20.846 23.314 54.857 23.68 82.286-0.013 0.818-0.021 1.783-0.021 2.749 0 8.444 0.572 16.755 1.68 24.895l-0.105-0.947c56.686 36.571 95.543 80.183 118.857 132.937 20.571 46.446 29.714 99.84 29.714 172.983 0 0.122 0 0.266 0 0.41 0 113.046-49.761 214.47-128.575 283.562l-0.431 0.371zM843.063 190.171c-24.96-13.349-25.326-43.977-25.783-71.131 0.014-0.919 0.023-2.004 0.023-3.091 0-10.099-0.706-20.033-2.071-29.755l0.129 1.12c-1.646-9.143-3.931-11.337-4.206-11.52l-1.92-1.554-0.457-0.549c-8.484-2.616-18.237-4.123-28.342-4.123-2.639 0-5.254 0.103-7.841 0.304l0.343-0.021c-8.503 0-17.006 0-24.594 0.549h-5.486c0.642 2.719 1.009 5.84 1.009 9.047 0 9.354-3.129 17.978-8.397 24.881l0.073-0.1c-6.429 7.524-15.927 12.263-26.532 12.263-0.315 0-0.629-0.004-0.943-0.013l0.046 0.001c-2.786-0.013-5.508-0.245-8.161-0.68l0.298 0.040h-1.737l-1.646-0.457c-44.16-12.709-73.143-14.171-125.806-14.171-18.286 0-36.571 0.914-54.857 2.651h-2.651c-13.415-0.088-24.666-9.249-27.932-21.649l-0.045-0.203c-0.778-2.702-1.45-5.985-1.883-9.344l-0.037-0.347v-2.743c-13.623 0-25.143-0.731-35.109-0.731-1.508-0.055-3.279-0.087-5.058-0.087-6.565 0-13.030 0.43-19.367 1.264l0.745-0.080-2.926 0.549h-0.64c0 3.474 0 7.954 0 10.789 0.549 13.074 1.371 30.994-13.44 42.423l-3.657 2.834-4.389 1.463c-5.669 1.829-11.611 3.931-17.554 6.126l-8.046 2.926-8.32-2.194c-11.807-3.031-20.825-12.415-23.279-24.206l-0.036-0.205c-0.519-2.475-0.816-5.32-0.816-8.233 0-1.35 0.064-2.686 0.188-4.003l-0.013 0.168c-7.571-1.169-16.305-1.837-25.195-1.837-0.593 0-1.184 0.003-1.776 0.009l0.090-0.001c-1.328-0.041-2.89-0.065-4.458-0.065-14.989 0-29.473 2.161-43.158 6.189l1.079-0.272c-0.677 3.38-1.065 7.266-1.065 11.242 0 11.082 3.010 21.461 8.257 30.363l-0.153-0.28c2.203 4.134 4.164 8.957 5.625 13.993l0.135 0.544c0.787 2.678 1.24 5.754 1.24 8.937 0 8.991-3.615 17.138-9.472 23.067l-1.551 1.551-1.829 1.28c-31.427 22.511-58.515 48.292-81.658 77.355l-0.627 0.816-1.28 1.463c-19.968 24.183-49.954 39.479-83.512 39.479-1.401 0-2.796-0.027-4.185-0.080l0.2 0.006c-14.994 0.457-24.411 0.823-36.571 10.789-4.846 8.594-9.143 27.429-6.491 58.971 1.385 20.075 4.997 38.767 10.615 56.569l-0.466-1.712c0.605-0.028 1.314-0.044 2.026-0.044 9.782 0 18.866 2.989 26.389 8.103l-0.164-0.105c10.627 8.391 18.577 19.741 22.639 32.805l0.127 0.475 1.371 3.657v3.931c5.76 80.731 45.714 158.72 113.097 219.429l20.937 19.017-19.931 20.389c-3.566 3.657-7.314 7.314-11.246 11.154-15.817 15.543-42.423 41.509-40.594 55.406 0.64 4.663 6.126 10.423 15.269 16.274 3.492 0.467 7.529 0.733 11.629 0.733 0.187 0 0.373-0.001 0.56-0.002h-0.029c66.103 0 171.886-52.206 172.891-52.754l9.691-4.846 10.423 3.2c48.48 14.328 104.287 22.985 161.982 23.857l0.487 0.006c230.309 0 404.023-148.937 404.023-346.514 0.091-111.451-20.754-194.011-124.251-260.754z" />
<glyph unicode="&#xe922;" d="M762.789 672.731c-57.844 18.613-124.453 29.777-193.532 30.715l-0.479 0.005c-7.497 0-14.903 0-22.126-0.457-31.453-0.207-56.87-25.753-56.87-57.234 0-31.61 25.625-57.235 57.235-57.235 0.129 0 0.257 0 0.385 0.001h2.449s11.52 1.189 29.806 1.189c1.233 0.012 2.691 0.018 4.15 0.018 58.843 0 115.179-10.735 167.155-30.355l-3.259 1.079 4.846-1.92h5.211c0.143-0.001 0.313-0.002 0.483-0.002 31.61 0 57.234 25.625 57.234 57.234 0 30.010-23.096 54.625-52.483 57.040l-0.206 0.014zM760.046 613.943c-52.665 19.010-113.441 30.001-176.784 30.001-1.267 0-2.534-0.004-3.799-0.013l0.194 0.001c-16.64 0-28.343-0.731-32.823-1.097-1.284 0.328-2.217 1.474-2.217 2.839 0 1.56 1.22 2.834 2.758 2.921h1.197c6.583 0 13.349 0.457 20.114 0.457 64.691-1.088 126.527-11.641 184.719-30.326l-4.513 1.252 4.297-1.463h4.48c1.616 0 2.926-1.31 2.926-2.926v0c0-0.018 0.001-0.039 0.001-0.060 0-0.631-0.206-1.214-0.555-1.684l0.005 0.008z" />
<glyph unicode="&#xe923;" glyph-name="24" d="M867 892.304h-700.862c-50.754 0-91.929-41.146-91.929-91.929v-700.862c0-50.754 41.145-91.929 91.929-91.929h700.862c50.754 0 91.929 41.145 91.929 91.929v700.891c-0.029 50.754-41.174 91.9-91.929 91.9zM744.085 554.195l-264.654-264.655c-1.595-1.595-3.61-2.295-5.401-3.582-0.336-0.363-0.448-0.84-0.811-1.231-16.397-16.371-42.954-16.371-59.351 0l-129.29 128.681c-14.566 14.546-14.581 38.146-0.036 52.712l0.036 0.036c18.198 18.213 47.716 18.224 65.929 0.026l0.026-0.026 93.723-93.087 241.934 241.938c14.561 14.574 42.704 18.467 61.17 0 18.218-18.19 14.942-42.624-3.275-60.812z" />
<glyph unicode="&#xe924;" horiz-adv-x="1328" d="M1295.986 341.378l-2.142 1.836c-61.189 40.385-132.78-32.736-136.146-36.408-42.584-54.742-105.658-91.808-177.514-99.636l-1.159-0.102h-8.261c0.092 1.235 0.145 2.676 0.145 4.129 0 9.649-2.314 18.757-6.418 26.8l0.155-0.334c-18.688 27.321-46.471 47.238-78.912 55.48l-0.94 0.202c-12.85 3.977-51.399 6.731-194.275 0-57.753 31.16-107.082 63.196-153.61 98.714l2.779-2.035c-54.472 53.395-129.154 86.349-211.532 86.349-2.323 0-4.64-0.026-6.951-0.078l0.344 0.006v98.209h-313.9v-585.58h313.9v74.039c130.945-52.011 303.192-116.259 305.946-116.871h5.201c67.002 0 119.319-1.53 160.621-1.53 109.529 0 140.735 3.671 151.137 7.649v0c233.437 109.834 359.486 214.162 374.783 309.005 0.945 5.002 1.485 10.756 1.485 16.637 0 24.527-9.401 46.859-24.797 63.588l0.060-0.066zM289.731 20.747h-250.264v521.943h250.264v-521.943zM1287.113 263.362c-8.261-47.116-65.166-146.548-356.121-283.612-6.119 0-48.339-7.037-295.849-2.754-22.64 8.566-189.992 71.285-313.594 120.543v346.636c1.92 0.048 4.18 0.075 6.447 0.075 74.756 0 142.555-29.791 192.17-78.149l-0.059 0.057h1.53c47.378-36.422 100.766-70.547 157.027-99.925l6.042-2.873h5.813c77.404 3.365 164.293 4.895 183.567 2.142h4.589c25.082-5.743 46.246-19.735 61.005-38.911l0.185-0.25c1.885-3.583 2.992-7.83 2.992-12.335 0-1.26-0.087-2.501-0.254-3.715l0.016 0.141h-379.679v-30.595h416.086c82.142 6.353 153.796 46.554 201.792 106.514l0.438 0.567s53.846 55.682 93.925 30.595c8.46-10.849 13.564-24.675 13.564-39.693 0-5.127-0.595-10.115-1.719-14.898l0.087 0.439zM630.86 613.976h197.335c0.003 0 0.007 0 0.010 0 22.319 0 40.473 17.835 40.986 40.031l0.001 0.048v50.787c0 22.642-18.355 40.997-40.997 40.997v0h-197.335c-22.642 0-40.997-18.355-40.997-40.997v0-50.787c0.514-22.244 18.667-40.079 40.986-40.079 0.004 0 0.007 0 0.011 0h-0.001zM621.682 705.759c0 5.069 4.109 9.178 9.178 9.178h197.335c5.069 0 9.178-4.109 9.178-9.178v0-51.705c0-5.069-4.109-9.178-9.178-9.178v0h-197.335c-5.069 0-9.178 4.109-9.178 9.178v0z" />
<glyph unicode="&#xe925;" horiz-adv-x="1328" d="M1075.705 562.271h-197.335c-22.642 0-40.997-18.355-40.997-40.997v0-50.175c0-22.642 18.355-40.997 40.997-40.997v0h197.335c22.642 0 40.997 18.355 40.997 40.997v0 51.093c-0.514 22.244-18.667 40.079-40.986 40.079-0.004 0-0.007 0-0.011 0h0.001zM1084.883 470.487c0-5.069-4.109-9.178-9.178-9.178v0h-197.335c-5.069 0-9.178 4.109-9.178 9.178v0 51.705c0 5.069 4.109 9.178 9.178 9.178v0h197.335c5.069 0 9.178-4.109 9.178-9.178v0z" />
<glyph unicode="&#xe926;" d="M420.953 325.343v0c-20.925 47.416-42.296 96.612-100.842 96.612h-144.25c-62.108 0-84.814-50.31-101.287-97.503l-74.574-200.57v-6.456c0-61.885 34.282-95.722 100.842-100.619h294.289c54.137 0.564 98.084 43.422 100.389 97.070l0.007 0.21 1.113 4.452-75.464 205.69zM357.51 90.045h-219.047c-47.193 3.562-60.104 8.014-60.772 33.169l61.663 167.402c15.137 44.522 28.271 57.878 54.317 57.878h108.41c27.381 0 37.621-20.035 54.539-58.546l60.327-165.398c-3.339-23.374-19.367-32.723-59.437-34.504z" />
<glyph unicode="&#xe927;" d="M944.083 325.343c-20.925 47.416-42.296 96.612-100.842 96.612h-144.25c-62.108 0-84.814-50.31-101.287-97.503l-73.683-200.348v-6.456c0-61.885 34.282-95.722 100.842-100.619h293.398c54.158 0.437 98.184 43.218 100.611 96.838l0.008 0.22 1.113 4.452-75.464 205.69zM880.64 90.045h-219.047c-47.193 3.339-60.55 7.791-60.55 32.946l61.663 167.402c15.137 44.522 28.271 57.878 54.317 57.878h108.41c27.381 0 37.621-20.035 54.539-58.546l60.327-165.398c-3.562-23.151-19.59-32.501-59.659-34.282z" />
<glyph unicode="&#xe928;" d="M358.177 465.586h294.289c54.381 0.453 98.539 43.599 100.613 97.535l0.006 0.19 1.113 4.452-75.464 205.69c-21.148 48.306-42.741 97.503-101.287 97.503h-144.028c-62.108 0-84.814-50.31-101.287-97.503l-73.683-200.348v-6.456c-0.668-62.33 33.391-96.39 99.729-101.064zM396.689 739.395v0c15.137 44.522 28.271 57.878 54.317 57.878h108.41c27.381 0 37.621-20.035 54.539-58.546l60.327-165.398c-3.562-23.374-19.59-32.723-59.659-34.727h-218.824c-47.193 3.562-60.104 8.014-60.772 33.169z" />
<glyph unicode="&#xe929;" glyph-name="26" d="M511.784 896.303c-247.565 0-448.208-200.645-448.208-448.208 0-247.566 200.643-448.208 448.208-448.208s448.208 200.642 448.208 448.208c0 247.563-200.643 448.208-448.208 448.208zM780.708 430.165h-250.997v-249.804h-35.858v249.804h-249.805v35.856h249.806v250.998h35.858v-250.998h250.996v-35.856z" />
<glyph unicode="&#xe92a;" glyph-name="28" d="M474.919 869.236c131.103 13.964 268.257-33.668 358.555-130.482 80.834-80.213 121.949-193.784 126.914-306.114-7.137-92.936-35.84-187.113-95.263-260.344-78.972-104.572-208.368-166.012-338.541-170.046-138.55-0.621-277.721 65.629-359.021 178.89-49.338 62.992-73.232 141.498-86.109 219.384-20.325 227.142 163.53 452.267 393.464 468.713zM249.639 458.861c1.862-15.825 3.879-31.651 5.896-47.476 176.252 0.155 352.504 0.155 528.601 0.155 2.017 15.825 3.724 31.651 5.43 47.476-179.821 3.258-359.952 3.568-539.927-0.155z" />
<glyph unicode="&#xe92b;" d="M511.868 895.917c247.305 0 447.785-200.48 447.785-447.785s-200.48-447.785-447.785-447.785c-247.305 0-447.785 200.48-447.785 447.785v0c1.345 246.762 201.022 446.44 447.656 447.784l0.129 0.001zM511.868 960c-282.583-0.151-511.603-229.264-511.603-511.868 0-282.697 229.171-511.868 511.868-511.868s511.868 229.171 511.868 511.868v0c0 0.157 0 0.344 0 0.53 0 282.404-228.934 511.338-511.338 511.338-0.28 0-0.559 0-0.839-0.001h0.044z" />
<glyph unicode="&#xe92c;" d="M511.868 192.066c-0.562-0.019-1.222-0.031-1.885-0.031-17.075 0-32.434 7.346-43.090 19.050l-0.042 0.047-191.454 192.778c-11.811 11.385-19.147 27.344-19.147 45.017s7.335 33.631 19.128 44.998l0.019 0.018 191.454 191.454c11.412 11.757 27.361 19.056 45.015 19.066h0.002c0.562 0.019 1.222 0.031 1.885 0.031 17.075 0 32.434-7.346 43.090-19.050l0.042-0.047 191.454-191.454c11.757-11.412 19.056-27.361 19.066-45.015v-0.002c0.019-0.562 0.031-1.222 0.031-1.885 0-17.075-7.346-32.434-19.050-43.090l-0.047-0.042-192.248-192.513c-10.71-11.893-26.16-19.337-43.349-19.337-0.307 0-0.614 0.002-0.92 0.007l0.046-0.001zM511.868 639.851l-191.983-191.983 191.983-191.983 191.983 191.983z" />
<glyph unicode="&#xe92d;" d="M1024 448c0-282.77-229.23-512-512-512s-512 229.23-512 512c0 282.77 229.23 512 512 512s512-229.23 512-512z" />
<glyph unicode="&#xe92e;" d="M544.278 277.037c1.978-8.831 4.542-16.524 7.778-23.854l-0.321 0.814c4.268-9.558 9.332-17.797 15.313-25.271l-0.176 0.227c7.591-9.399 15.955-17.658 25.156-24.902l0.333-0.253c11.251-8.628 24.019-16.293 37.623-22.435l1.223-0.494c-10.071-2.605-22.298-4.8-34.784-6.132l-1.167-0.101c-11.687-1.447-25.823-2.783-42.63-3.896s-36.285-1.67-58.212-1.67q-16.918 0-38.511 1.002t-45.301 3.45c-15.694 1.558-31.054 3.228-46.414 5.009s-28.049 3.562-41.962 5.788-23.485 3.784-32.167 5.899c-6.228 1.070-11.801 3.129-16.829 6.029l0.244-0.13c-5.523 7.676-8.881 17.235-9.015 27.571v0.032c-0.639 6.072-1.003 13.118-1.003 20.25 0 13.664 1.337 27.016 3.889 39.931l-0.214-1.301c1.456 12.935 7.923 24.13 17.384 31.762l0.091 0.071c9.226 7.040 19.874 12.879 31.343 16.994l0.824 0.258q18.254 6.567 38.289 11.798c13.518 3.579 25.367 8.684 36.228 15.258l-0.611-0.343c7.081 4.062 13.185 8.749 18.59 14.138l-0.002-0.002c3.758 3.794 6.803 8.302 8.912 13.302l0.104 0.277c1.621 4.116 2.56 8.883 2.56 13.869 0 0.055 0 0.109 0 0.163v-0.008c0 4.786 0 10.129-0.557 15.805-0.293 8.147-3.681 15.451-9.017 20.815l0.001-0.001c-5.231 4.897-11.13 10.017-17.697 15.249-3.405 3.045-6.149 6.751-8.042 10.925l-0.083 0.206c-2.337 4.675-4.452 9.572-6.344 14.358l-5.788 17.475c-3.098 0.888-5.802 2.221-8.203 3.949l0.078-0.053c-2.735 2.352-5.149 4.943-7.256 7.776l-0.090 0.127c-2.863 4.181-5.149 9.034-6.597 14.237l-0.082 0.344c-1.377 4.015-2.173 8.642-2.173 13.454 0 1.337 0.061 2.66 0.182 3.966l-0.012-0.168c0.519 5.102 1.62 9.779 3.245 14.202l-0.129-0.401c1.675 4.791 4.057 8.93 7.063 12.529l-0.051-0.063c0.007 15.065 0.856 29.924 2.502 44.541l-0.165-1.8c2.027 14.757 4.868 27.781 8.61 40.419l-0.485-1.907c4.131 13.622 10.29 25.472 18.232 35.891l-0.2-0.274c6.801 9.823 14.748 18.23 23.791 25.3l0.251 0.189c7.877 5.953 16.858 11.144 26.45 15.166l0.82 0.305c8.173 3.437 17.716 6.188 27.642 7.803l0.741 0.099c8.095 1.343 17.424 2.112 26.933 2.115h0.003c0.103 0 0.225 0 0.347 0 11.306 0 22.27-1.462 32.714-4.207l-0.894 0.2c10.939-2.827 20.382-6.29 29.373-10.551l-0.99 0.422c9.112-4.203 16.929-8.845 24.205-14.183l-0.386 0.27c6.297-4.719 11.808-9.913 16.687-15.66l0.12-0.145c9.314-11.301 16.866-24.484 21.978-38.825l0.283-0.911c4.081-11.467 7.604-25.182 9.933-39.299l0.196-1.438c1.524-11.578 2.394-24.966 2.394-38.558 0-2.097-0.021-4.189-0.062-6.276l0.005 0.312c2.702-1.862 4.882-4.291 6.403-7.127l0.053-0.108c1.606-2.922 2.875-6.309 3.63-9.886l0.043-0.243c0.447-2.276 0.703-4.892 0.703-7.569s-0.256-5.293-0.745-7.827l0.041 0.258c-0.397-7.106-2.161-13.709-5.033-19.679l0.135 0.312c-2.177-4.348-5.014-8.038-8.425-11.1l-0.034-0.030c-3.095-2.77-6.817-4.91-10.921-6.177l-0.209-0.056c-1.781-6.010-3.784-11.798-5.788-17.475s-4.118-9.683-6.456-14.358c-1.964-4.366-4.668-8.068-7.989-11.108l-0.025-0.023c-3.006-2.601-5.674-5.446-8.025-8.544l-0.101-0.138c-1.767-2.504-3.337-5.363-4.571-8.394l-0.104-0.288c-1.113-3.117-2.337-6.456-3.673-9.906-1.817-4.255-3.904-7.915-6.349-11.3l0.116 0.169c-7.445-10.94-14.438-23.475-20.305-36.622l-0.62-1.556c-4.33-9.915-7.916-21.52-10.19-33.588l-0.161-1.028c-1.316-7.039-2.068-15.138-2.068-23.413 0-3.080 0.104-6.136 0.309-9.164l-0.022 0.41c0.683-11.497 2.23-22.206 4.595-32.604l-0.254 1.327zM818.087 206.247c4.395-4.301 7.571-9.831 8.974-16.033l0.041-0.217c0.043-0.419 0.067-0.906 0.067-1.399 0-4.665-2.191-8.819-5.601-11.488l-0.032-0.024c-2.214-2.528-5.418-4.141-9-4.229h-0.015c-0.105-0.001-0.229-0.002-0.353-0.002-3.886 0-7.591 0.778-10.966 2.187l0.188-0.070c-4.306 1.716-7.968 3.583-11.432 5.74l0.302-0.175c-3.678 2.275-6.839 4.55-9.832 7.020l0.149-0.119-41.294 35.729c-9.934-6.014-21.452-10.769-33.695-13.642l-0.809-0.16c-8.804-2.181-18.912-3.432-29.312-3.432-2.531 0-5.046 0.074-7.54 0.22l0.344-0.016c-13.099 0.869-25.258 3.979-36.404 8.951l0.675-0.269c-12.252 5.421-22.702 12.734-31.483 21.688l-0.016 0.016c-10.259 9.781-18.475 21.604-24.012 34.827l-0.252 0.679c-5.156 12.067-8.153 26.108-8.153 40.849s2.997 28.781 8.416 41.545l-0.263-0.697c11.652 27.101 33.010 48.171 59.593 59.168l0.734 0.269c12.187 4.937 26.322 7.801 41.127 7.801s28.94-2.865 41.882-8.070l-0.755 0.268c14.222-5.693 26.389-13.68 36.648-23.624l-0.029 0.028c17.169-17.404 28.528-40.578 30.911-66.354l0.032-0.429c0.221-2.64 0.346-5.714 0.346-8.817 0-9.676-1.222-19.066-3.521-28.025l0.17 0.779c-2.924-12.667-7.845-23.833-14.478-33.759l0.231 0.367 22.261-21.259 16.139-16.028 9.906-9.906zM678.957 248.431c0.010 0 0.022 0 0.033 0 26.915 0 50.054 16.164 60.24 39.314l0.165 0.422c3.307 7.362 5.234 15.957 5.234 25.002 0 0.21-0.001 0.42-0.003 0.63v-0.032c0.002 0.197 0.004 0.429 0.004 0.662 0 8.91-1.928 17.369-5.389 24.983l0.154-0.379c-3.488 7.707-8.050 14.301-13.588 19.933l0.009-0.009c-5.811 5.831-12.72 10.564-20.391 13.863l-0.423 0.162c-7.526 3.25-16.288 5.14-25.491 5.14-18.114 0-34.518-7.321-46.414-19.167l0.002 0.002c-5.743-5.722-10.46-12.469-13.852-19.945l-0.172-0.423c-3.308-7.236-5.236-15.697-5.236-24.607 0-0.271 0.002-0.541 0.005-0.811v0.041c-0.002-0.178-0.003-0.388-0.003-0.598 0-9.045 1.927-17.64 5.392-25.398l-0.158 0.396c10.346-23.257 33.249-39.179 59.871-39.179 0.004 0 0.007 0 0.011 0h-0.001z" />
<glyph unicode="&#xe92f;" glyph-name="31" d="M512.444 0.643c-246.837 0-446.932 200.097-446.932 446.931 0 246.84 200.095 446.934 446.932 446.934 246.833 0 446.931-200.094 446.931-446.934 0-246.834-200.098-446.931-446.931-446.931zM718.532 538.263c-0.014 4.7-0.027 7.99-0.068 30.075l-127.197 120.059v-0.424c-2.040-0.013-222.136-0.040-222.136-0.040-35.054-0.082-63.417-27.075-63.35-60.307l0.773-360.99c0.068-33.226 28.541-60.097 63.594-60.016l285.607 0.605c35.058 0.068 63.421 27.060 63.341 60.299l-0.564 270.737zM591.462 598.151c0 0-0.053 24.355-0.135 60.164l95.403-90.038-63.466-0.135c-17.526-0.039-31.768 13.397-31.801 30.008zM584.761 358.926h-210.472c-4.19 0-7.585 3.397-7.585 7.587 0 4.178 3.394 7.576 7.585 7.576h210.473c4.191 0 7.587-3.397 7.587-7.576-0.001-4.189-3.396-7.587-7.588-7.587zM518.567 431.957h-144.363c-4.229 0-7.657 3.423-7.657 7.653s3.428 7.655 7.657 7.655h144.363c4.23 0 7.661-3.425 7.661-7.655s-3.431-7.653-7.661-7.653zM374.506 300.925h249.033c4.223 0 7.649-3.426 7.649-7.655 0-4.217-3.426-7.642-7.649-7.642h-249.033c-4.226 0-7.651 3.425-7.651 7.642 0 4.23 3.425 7.655 7.651 7.655z" />
<glyph unicode="&#xe930;" d="M745.082 702.050v0c2.788 4.339 5.71 9.529 8.348 14.884l0.429 0.964c11.945 20.588 20.31 44.744 23.553 70.496l0.097 0.941c0 0.005 0 0.010 0 0.016 0 66.64-53.472 120.792-119.852 121.888l-0.103 0.001c-19.608-0.060-38.066-4.923-54.278-13.473l0.64 0.308c-21.589 29.803-56.283 48.966-95.451 48.966s-73.862-19.163-95.216-48.625l-0.236-0.341c-15.643 8.28-34.192 13.147-53.876 13.166h-0.006c-67.326 0-121.905-54.579-121.905-121.905v0c3.274-32.364 14.942-61.491 32.769-85.823l-0.342 0.489c-107.764-100.693-172.13-261.608-172.13-436.663 0-320.366 227.474-320.366 409.6-320.366s409.6 0 409.6 320.366c0 173.836-63.634 334.507-171.642 434.712zM358.156 866.621v0c17.462-0.189 33.387-6.614 45.689-17.148l-0.097 0.081 22.674-19.261 11.703 26.819c10.853 27.658 37.314 46.884 68.267 46.884s57.414-19.226 68.095-46.387l0.172-0.496 12.19-27.55 22.674 19.261c12.205 10.453 28.131 16.878 45.552 17.066h0.040c41.725-0.55 75.338-34.503 75.338-76.306 0-0.088 0-0.176 0-0.264v0.014c-3.068-18.916-9.122-35.89-17.714-51.253l0.403 0.785c-3.529-7.003-7.256-12.992-11.449-18.613l0.233 0.327c-58.591-16.792-126.126-27.193-195.843-28.753l-0.911-0.016c-68.339 1.397-133.69 11.811-195.665 30.098l5.25-1.328c-15.167 19.179-26.116 42.39-31.045 67.751l-0.162 1.004c-0.001 0.154-0.002 0.336-0.002 0.519 0 41.644 33.146 75.547 74.495 76.766l0.112 0.003zM507.124-7.68c-219.429 0-364.008 19.017-364.008 274.773 0 165.303 61.196 316.952 163.84 407.65 59.148-17.236 127.24-27.669 197.598-28.762l0.619-0.008c72.614 1.381 142.203 11.794 208.486 30.16l-5.881-1.39c102.644-90.941 163.596-243.81 163.596-407.65-0.244-255.512-144.335-274.773-364.251-274.773z" />
<glyph unicode="&#xe931;" d="M526.629 146.651v43.398c20.24 2.767 38.053 11.541 51.994 24.438l-0.063-0.058c13.973 13.339 22.664 32.107 22.674 52.905v0.002c0.001 0.135 0.002 0.294 0.002 0.453 0 17.554-6.974 33.479-18.303 45.156l0.016-0.016c-15.737 15.082-34.019 27.671-54.11 37.030l-1.235 0.517v107.276c16.65-0.373 32.278-4.382 46.239-11.259l-0.646 0.288 12.434-6.583v40.229h-5.12c-15.745 5.484-33.901 8.766-52.787 9.020l-0.119 0.001v37.79h-34.377v-37.547c-20.087-3.278-37.62-12.436-51.225-25.624l0.025 0.024c-13.982-13.346-22.675-32.129-22.675-52.942 0-0.073 0-0.147 0-0.22v0.011c-0.025-0.668-0.039-1.453-0.039-2.242 0-16.694 6.307-31.914 16.669-43.409l-0.051 0.058c16.083-15.711 34.762-28.856 55.317-38.714l1.247-0.539v-104.594c-22.457 1.392-43.104 8.007-61.101 18.633l0.636-0.347-12.678 7.558v-40.472l4.632-2.194c19.918-9.965 43.321-16.026 68.084-16.576l0.183-0.003v-41.935zM528.335 309.029c9.855-5.263 18.295-11.681 25.57-19.23l0.030-0.031c5.194-6.418 8.338-14.682 8.338-23.679 0-0.676-0.018-1.347-0.053-2.014l0.004 0.093c0.010-0.319 0.016-0.694 0.016-1.070 0-10.146-4.105-19.334-10.744-25.993l0.001 0.001c-6.554-6.29-14.828-10.835-24.047-12.86l-0.334-0.062zM467.139 387.535c-5.471 6.663-8.788 15.277-8.788 24.666 0 0.328 0.004 0.656 0.012 0.982l-0.001-0.048c-0.015 0.409-0.024 0.889-0.024 1.372 0 10.801 4.389 20.576 11.482 27.64l0.001 0.001c6.1 6.125 13.752 10.699 22.318 13.081l0.357 0.085v-87.040c-9.716 5.263-18.008 11.766-25.050 19.436l-0.062 0.069z" />
<glyph unicode="&#xe932;" glyph-name="33" d="M364.544 577.707h275.115c5.461 0 9.557 4.779 9.557 10.24s-4.096 10.24-9.557 10.24h-275.115c-5.461 0-9.557-4.779-9.557-10.24s4.096-10.24 9.557-10.24zM639.659 338.773h-275.115c-5.461 0-9.557-4.779-9.557-10.24s4.096-10.24 9.557-10.24h275.115c5.461 0 9.557 4.779 9.557 10.24 0.683 5.461-4.096 10.24-9.557 10.24zM512 946.347c-271.701 0-491.52-219.819-491.52-491.52s219.819-491.52 491.52-491.52 491.52 219.819 491.52 491.52-219.819 491.52-491.52 491.52zM695.637 314.197c-2.731-51.2-48.469-98.987-99.669-102.4-62.123-4.096-124.928-4.096-187.051 0-51.2 3.413-96.939 51.2-99.669 102.4-4.779 93.525-4.779 187.051 0 280.576 2.731 51.2 48.469 98.987 99.669 102.4 62.123 4.096 124.928 4.096 187.051 0 51.2-3.413 96.939-51.2 99.669-102.4 0-4.096 0-8.192 0.683-12.288l-115.371-114.005h-216.405c-5.461 0-9.557-4.779-9.557-10.24s4.096-10.24 9.557-10.24h196.608l-42.325-42.325 0.683-0.683-20.48-47.787 47.104 20.48h0.683l69.632 70.315h23.211c5.461 0 9.557 4.779 9.557 10.24s-4.096 10.24-9.557 10.24h-3.413l61.44 60.757c2.048-71.68 1.365-143.36-2.048-215.040zM791.211 620.715l-8.192-8.875h-1.365l-85.333-82.603v55.296l58.027 53.931c0 0 0.683 0 0.683 0l8.192 9.557c7.509 7.509 20.48 8.192 27.989 0 7.509-6.827 7.509-19.115 0-27.307z" />
<glyph unicode="&#xe933;" glyph-name="34" d="M592.977 459.971l-82.841-24.852c-17.656-4.945-32.059-9.973-46.074-15.748l2.748 1.003-0.497 0.497q9.61 25.515 39.018 126.581l-27.42 27.42-36.533-138.759-41.835 41.835-19.385-19.385 49.042-49.042-26.675-26.675-49.042 49.042-19.633-19.551 49.042-48.793-38.853-38.853 24.355-24.355 38.853 38.355 47.302-47.302 19.633 19.633-47.302 47.302 26.675 26.675 47.302-47.302 19.385 19.385-40.592 40.592 139.256 36.119zM644.090 675.44c-0.009 0-0.019 0-0.029 0-38.477 0-69.669-31.192-69.669-69.669s31.192-69.669 69.669-69.669c38.477 0 69.669 31.192 69.669 69.669 0 19.211-7.775 36.606-20.351 49.209l0.001-0.001c-12.601 12.641-30.030 20.462-49.285 20.462-0.002 0-0.004 0-0.005 0v0zM512.041 935.148c-269.067 0-487.189-218.122-487.189-487.189s218.122-487.189 487.189-487.189c269.067 0 487.189 218.122 487.189 487.189v0c0 269.067-218.122 487.189-487.189 487.189v0zM805.134 433.793c-0.017-4.003-1.626-7.628-4.227-10.274l-300.297-300.214c-14.323-14.283-34.089-23.114-55.918-23.114s-41.594 8.831-55.92 23.116l0.002-0.002-227.316 227.068c-14.263 14.333-23.080 34.096-23.080 55.918s8.817 41.585 23.083 55.921l-0.003-0.003 300.299 299.719c2.659 2.613 6.307 4.225 10.332 4.225 0.037 0 0.074 0 0.111 0h318.436c0.025 0 0.054 0 0.084 0 7.857 0 14.237-6.322 14.33-14.157v-318.119z" />
<glyph unicode="&#xe934;" d="M1005.494 218.155c-17.889 15.052-204.677 182.84-215.904 193.943-10.28 11.266-24.758 18.55-40.942 19.364l-0.141 0.006h-318.427c-12.719-1.495-24.278-5.249-34.686-10.862l0.512 0.252c-22.136-11.071-37.069-33.569-37.069-59.555 0-0.967 0.021-1.929 0.062-2.885l-0.005 0.137c0.013-40.715 28.524-74.767 66.67-83.294l0.569-0.107h0.864c17.396-3.084 49.349-6.662 98.699-10.487l-22.454-16.162h-199.372c-20.357 14.805-89.939 65.758-137.191 102.647v0c-23.495 19.276-53.313 31.651-85.934 33.66l-0.427 0.021c-0.467 0.009-1.017 0.015-1.569 0.015-30.351 0-56.899-16.285-71.381-40.594l-0.21-0.381v-1.11c-1.727-3.701-16.162-37.012 4.195-60.823l0.247-0.493 0.987-0.864c51.693-46.882 226.39-204.060 240.332-216.027 9.305-8.124 21.56-13.079 34.972-13.079 0.11 0 0.22 0 0.33 0.001h-0.017c0.020 0 0.044 0 0.068 0 3.906 0 7.718 0.404 11.396 1.173l-0.36-0.063h362.965c12.813-0.466 24.475-5.037 33.801-12.429l-0.12 0.092c2.344-2.097 58.232-51.2 72.173-62.797 10.121-9.777 23.697-16.035 38.723-16.773l0.14-0.005c15.077 0.264 28.408 7.512 36.928 18.639l0.084 0.114 171.983 186.541-0.74 2.591c3.008 5.46 4.777 11.967 4.777 18.888 0 12.341-5.627 23.368-14.456 30.654l-0.067 0.054zM974.651 185.585l-163.47-177.905h-0.864l-1.11-1.974c-0.558-0.643-1.328-1.089-2.199-1.231l-0.021-0.003s-3.948 0-10.24 5.552c-13.201 11.104-67.979 59.219-71.187 61.687-16.702 14.622-38.476 23.822-62.376 24.67l-0.174 0.005h-369.133l-3.578-1.357h-2.097c-0.067-0.002-0.146-0.003-0.225-0.003-2.479 0-4.74 0.938-6.446 2.478l0.008-0.008c-13.078 11.227-185.060 165.814-237.494 213.313-0.015 0.344-0.023 0.748-0.023 1.154 0 4.037 0.825 7.881 2.316 11.373l-0.072-0.189c7.105 10.627 19.055 17.53 32.617 17.53 0.331 0 0.66-0.004 0.989-0.012l-0.049 0.001c23.146-2.154 43.866-11.112 60.521-24.827l-0.191 0.153c56.135-43.674 142.867-106.718 143.607-107.335l5.799-4.195h227.624l66.745 47.869c9.938 5.256 16.595 15.528 16.595 27.355 0 2.063-0.203 4.079-0.589 6.028l0.032-0.196c-3.446 11.308-13.785 19.393-26.012 19.393-0.397 0-0.793-0.009-1.186-0.025l0.056 0.002c-70.323 5.058-116.341 9.5-137.068 13.571-18.72 4.366-32.453 20.91-32.453 40.662 0 0.235 0.002 0.469 0.006 0.703v-0.035c0 22.701 23.194 27.389 29.98 28.253h315.096c4.023-0.943 7.448-3.084 9.973-6.021l0.021-0.025c13.694-14.188 192.956-174.573 216.274-195.547z" />
<glyph unicode="&#xe935;" d="M428.97 894.612l87.965-135.094h-51.447q-23.564 0-23.564-19.246 2.221-14.681 23.564-17.149h75.011v-38.616h-75.011q-23.564 0-23.564-19.246c1.48-9.993 9.253-15.792 23.564-17.149h75.011v-86.361c0-14.311 7.773-21.467 23.564-21.467s23.564 7.156 23.564 21.467v86.361h75.011c14.311 1.48 22.207 7.156 23.564 17.149 0 12.337-7.896 19.246-23.564 19.246h-75.011v38.616h75.011c14.311 1.48 22.207 7.156 23.564 17.149 0 12.337-7.896 19.246-23.564 19.246h-51.323l87.842 135.094c0.208 1.482 0.926 2.767 1.968 3.696l0.006 0.005c2.995 4.933 5.231 10.691 6.367 16.834l0.048 0.315c-0.189 10.68-8.624 19.33-19.198 19.861l-0.048 0.002c-0.304 0.012-0.662 0.019-1.021 0.019-10.719 0-20.024-6.048-24.691-14.918l-0.073-0.153-98.699-148.048-98.699 148.048c-4.742 9.016-14.045 15.059-24.759 15.059-0.231 0-0.461-0.003-0.69-0.008l0.034 0.001c-10.442-0.453-18.793-8.804-19.245-19.204l-0.001-0.042c1.599-6.751 3.802-12.673 6.627-18.225l-0.212 0.459c1.079-0.932 1.834-2.211 2.092-3.663l0.006-0.038z" />
<glyph unicode="&#xe936;" d="M1024.099 447.95c0-282.797-229.252-512.050-512.050-512.050s-512.050 229.252-512.050 512.050c0 282.797 229.252 512.050 512.050 512.050s512.050-229.252 512.050-512.050z" />
<glyph unicode="&#xe937;" d="M672.294 163.633h-309.985c0 0 0 0-0.001 0-45.815 0-82.975 37.056-83.144 82.831v310.298c0.056 45.842 37.203 82.989 83.040 83.046h42.123v-36.568h-42.018c-25.614 0-46.379-20.764-46.379-46.379v0-310.381c0-25.614 20.764-46.379 46.379-46.379v0h309.985c25.572 0.056 46.28 20.799 46.28 46.379 0 0 0 0 0 0v0 310.282c0 0.029 0 0.064 0 0.099 0 25.579-20.708 46.322-46.274 46.379h-42.122v36.568h42.117c45.842-0.056 82.989-37.203 83.046-83.040v-310.287c-0.225-45.734-37.296-82.736-83.035-82.848h-0.011z" />
<glyph unicode="&#xe938;" d="M648.51 565.979h-36.766v102.469c0 25.614-20.764 46.379-46.379 46.379v0h-96.325c-25.572-0.056-46.28-20.799-46.28-46.379 0 0 0 0 0 0v0-102.469h-36.271v102.469c0 0.089-0.001 0.194-0.001 0.299 0 45.711 36.887 82.806 82.519 83.143h96.357c45.885 0 83.089-37.169 83.145-83.040v-102.871z" />
<glyph unicode="&#xe939;" d="M386.49 584.312h262.020v-36.766h-262.020zM647.123 451.221h-259.246c-10.153 0-18.383 8.23-18.383 18.383s8.23 18.383 18.383 18.383v0h258.75c10.153 0 18.383-8.23 18.383-18.383s-8.23-18.383-18.383-18.383v0zM647.123 356.184h-259.246c-10.153 0-18.383 8.23-18.383 18.383s8.23 18.383 18.383 18.383v0h258.75c10.153 0 18.383-8.23 18.383-18.383s-8.23-18.383-18.383-18.383v0zM647.123 261.147h-259.246c-10.153 0-18.383 8.23-18.383 18.383s8.23 18.383 18.383 18.383h258.75c10.153 0 18.383-8.23 18.383-18.383s-8.23-18.383-18.383-18.383v0z" />
<glyph unicode="&#xe93a;" d="M755.043 473.518c-11.912 114.751-102.278 205.117-215.985 216.941l-1.044 0.088v48.559c141.522-12.155 253.433-124.066 265.513-264.505l0.075-1.083h-48.559zM420.184 473.518h-49.55c10.649 60.91 58.010 108.271 118.048 118.793l0.872 0.127v-49.55c-34.043-9.053-60.317-35.327-69.217-68.694l-0.153-0.676zM272.426 473.518h-48.559c12.196 141.504 124.085 253.392 264.502 265.512l1.086 0.076v-48.559c-114.786-11.836-205.193-102.244-216.942-215.992l-0.087-1.037zM272.426 424.959c11.912-114.751 102.278-205.117 215.985-216.941l1.044-0.088v-48.559c-141.437 12.27-253.265 124.064-265.511 264.393l-0.077 1.096zM489.455 355.589v-49.55c-60.91 10.649-108.271 58.010-118.793 118.048l-0.127 0.872h49.55c9.022-34.084 35.305-60.399 68.694-69.315l0.676-0.154zM607.285 424.959h49.55c-10.649-60.91-58.010-108.271-118.048-118.793l-0.872-0.127v49.451c34.043 9.053 60.317 35.327 69.217 68.694l0.153 0.676zM656.835 473.518h-49.55c-9.053 34.043-35.327 60.317-68.694 69.217l-0.676 0.153v49.55c60.993-10.572 108.444-57.956 118.991-118.048l0.127-0.872zM755.043 424.86h48.559c-12.196-141.504-124.085-253.392-264.502-265.512l-1.086-0.076v48.559c114.786 11.836 205.193 102.244 216.942 215.992l0.087 1.037z" />
<glyph unicode="&#xe93b;" d="M1024.099 447.95c0-282.797-229.252-512.050-512.050-512.050s-512.050 229.252-512.050 512.050c0 282.797 229.252 512.050 512.050 512.050s512.050-229.252 512.050-512.050z" />
<glyph unicode="&#xe93c;" d="M518.987 769.332c-176.028-0.056-318.706-142.768-318.706-318.805 0-176.071 142.734-318.805 318.805-318.805s318.805 142.734 318.805 318.805v0c-0.225 176.015-142.881 318.636-318.888 318.805h-0.016zM518.987 182.065c-148.225 0.057-268.363 120.229-268.363 268.462 0 148.267 120.194 268.462 268.462 268.462s268.462-120.194 268.462-268.462v0c-0.169-148.234-120.319-268.349-268.55-268.462h-0.011z" />
<glyph unicode="&#xe93d;" d="M545.050 492.545h-44.595c-6.414-0.963-11.276-6.435-11.276-13.042 0-0.503 0.028-0.999 0.083-1.487l-0.005 0.060v-176.2c-0.049-0.428-0.077-0.924-0.077-1.427 0-6.607 4.862-12.079 11.203-13.033l0.073-0.009h44.595c6.414 0.963 11.276 6.435 11.276 13.042 0 0.503-0.028 0.999-0.083 1.487l0.005-0.060v176.2c0.049 0.428 0.077 0.924 0.077 1.427 0 6.607-4.862 12.079-11.203 13.033l-0.073 0.009zM484.202 573.51c0-21.345 17.304-38.649 38.649-38.649s38.649 17.304 38.649 38.649c0 21.345-17.304 38.649-38.649 38.649v0c-21.345 0-38.649-17.304-38.649-38.649v0z" />
<glyph unicode="&#xe93e;" d="M1024.099 447.95c0-282.797-229.252-512.050-512.050-512.050s-512.050 229.252-512.050 512.050c0 282.797 229.252 512.050 512.050 512.050s512.050-229.252 512.050-512.050z" />
<glyph unicode="&#xe93f;" d="M719.862 599.474h-17.541c7.118 10.95 11.351 24.345 11.351 38.729 0 1.645-0.055 3.278-0.164 4.895l0.012-0.219c-1.983 16.954-11.724 31.28-25.523 39.506l-0.243 0.134c-10.881 6.641-24.044 10.573-38.126 10.573-7.609 0-14.949-1.148-21.858-3.28l0.524 0.139c-37.262-9.414-81.46-41.523-110.496-80.469-29.036 38.946-73.136 71.154-110.496 80.469-6.583 2.131-14.157 3.36-22.018 3.36-14.212 0-27.487-4.016-38.75-10.975l0.317 0.183c-14.042-8.36-23.783-22.686-25.742-39.392l-0.024-0.248c-0.061-1.109-0.096-2.408-0.096-3.714 0-14.585 4.364-28.15 11.857-39.462l-0.165 0.266h-17.144c-26.539-0.224-47.966-21.789-47.966-48.359 0-0.14 0.001-0.28 0.002-0.419v0.021-62.235c0.089-21.501 14.195-39.683 33.649-45.888l0.342-0.094c-1.82-4.854-2.874-10.463-2.874-16.318 0-0.012 0-0.023 0-0.035v0.002-186.903c0.112-26.574 21.596-48.094 48.147-48.262h341.911c26.666 0.056 48.262 21.687 48.262 48.361 0 0 0 0 0 0v0 186.803c0 0.015 0 0.033 0 0.050 0 5.849-1.054 11.453-2.981 16.631l0.107-0.33c19.796 6.299 33.902 24.482 33.991 45.972v62.147c0 0 0 0 0 0 0 26.674-21.595 48.304-48.256 48.361h-0.005zM688.745 225.867h-153.605v214.651h153.605c7.662 0 13.874-6.212 13.874-13.874v0-186.903c0-7.662-6.212-13.874-13.874-13.874v0zM553.87 599.474c24.478 28.243 56.586 50.442 82.649 56.982 3.94 1.404 8.484 2.216 13.218 2.216 7.147 0 13.861-1.85 19.691-5.096l-0.206 0.105c5.369-2.853 9.139-8.1 9.901-14.279l0.009-0.091c1.387-13.874-13.478-32.505-20.514-39.64h-104.749zM733.34 551.114v-62.235c0-7.662-6.212-13.874-13.874-13.874v0h-184.326v90.082h184.722c7.662 0 13.874-6.212 13.874-13.874v0zM500.455 440.518v-214.651h-153.605c-7.662 0-13.874 6.212-13.874 13.874v0 186.903c0.056 7.64 6.234 13.818 13.869 13.874h0.005zM355.868 639.312c0.771 6.269 4.541 11.516 9.809 14.32l0.101 0.049c5.615 3.152 12.324 5.009 19.466 5.009 4.742 0 9.292-0.818 13.518-2.321l-0.282 0.087c25.964-6.541 58.073-28.739 82.55-56.982h-104.451c-6.243 6.342-21.802 25.568-20.415 39.64zM301.958 551.014c0 7.662 6.212 13.874 13.874 13.874v0h184.623v-90.082h-184.921c-7.662 0-13.874 6.212-13.874 13.874v0 62.433z" />
<glyph unicode="&#xe940;" horiz-adv-x="1328" d="M868.274 820.489h197.335c22.642 0 40.997 18.355 40.997 40.997v0 49.869c0 22.642-18.355 40.997-40.997 40.997v0h-197.335c-0.365 0.012-0.793 0.018-1.224 0.018-22.642 0-40.997-18.355-40.997-40.997 0-0.006 0-0.013 0-0.019v0.001-49.869c0-0.005 0-0.012 0-0.018 0-22.642 18.355-40.997 40.997-40.997 0.43 0 0.859 0.007 1.286 0.020l-0.063-0.002zM859.095 912.272c0 5.069 4.109 9.178 9.178 9.178h197.335c5.069 0 9.178-4.109 9.178-9.178v0-50.787c0-5.069-4.109-9.178-9.178-9.178v0h-197.335c-5.069 0-9.178 4.109-9.178 9.178v0z" />
<glyph unicode="&#xe941;" glyph-name="6" horiz-adv-x="1280" d="M184.298 369.696c1.194 0 2.511-0.071 3.789-0.149 37.54-17.65 80.639-22.37 121.733-13.007 0.32 0 0.555 0 0.838-0.071 91.689 21.853 149.542 106.095 130.516 193.506-35.995 27.126-63.446 63.693-78.089 105.647-116.627 69.536-272.234-8.214-272.234-138.948 0-53.402 27.328-100.857 69.542-130.924-0.754-0.149-1.553-0.22-2.427-0.368 8.296-5.948 17.031-11.15 26.332-15.687v0zM911.071 654.844c-12.969-37.086-39.506-77.148-76.127-104.834-0.639-2.715-1.079-5.5-1.559-8.214-0.717-0.744-1.28-1.339-1.995-2.041-5.303-33.371 0.555-66.373 15.601-95.435 1.118-0.666 2.231-1.375 3.394-1.971 16.835-31.101 43.89-56.371 77.123-72.277 0.236-0.376 0.479-0.673 0.799-1.007v0.597c116.985-55.295 256.915 23.743 256.915 147.050 0 123.934-141.284 202.945-258.473 146.27v0.263c-5.381-2.568-10.571-5.317-15.677-8.4v0zM889.526 352.16c-62.367 98.028-199.183 83.987-199.183 83.987h-116.948c0 0-108.925 3.68-171.368-79.79-0.959-1.524-2.032-2.9-3.111-4.424-0.914-0.744-1.751-1.375-2.634-2.041-2.352-3.417-4.664-7.095-7.016-11.114 0.433-0.149 0.836-0.298 1.155-0.368-5.030-8.697-9.901-18.358-14.649-28.799-0.434 0.071-0.838 0.149-1.27 0.298-44.17-96.774-84.072-290.385-83.873-307.965h1.796c0.357-19.031 8.66-58.788 72.579-57.414h555.046c0 0 81.787-1.82 81.787 67.146 0.047 0-38.378 253.372-112.311 340.485v0zM391.777 732.812c0-29.592 6.316-59.171 18.477-86.509 12.153-27.34 30.145-52.417 52.61-73.341s49.391-37.681 78.743-49c29.344-11.326 61.11-17.211 92.876-17.211 31.772 0 63.53 5.885 92.884 17.211 29.352 11.319 56.277 28.075 78.743 49s40.447 46.001 52.61 73.341c12.161 27.338 18.477 56.917 18.477 86.509 0 29.586-6.316 59.165-18.477 86.503-12.163 27.34-30.145 52.417-52.61 73.341-22.467 20.924-49.391 37.681-78.743 49-29.354 11.326-61.112 17.209-92.884 17.209-31.766 0-63.532-5.883-92.876-17.209-29.352-11.319-56.278-28.077-78.743-49s-40.457-46.001-52.61-73.341c-12.161-27.338-18.477-56.917-18.477-86.503v0zM1194.119 239.297c-45.448 71.426-145.159 61.241-145.159 61.241h-83.226c55.221-107.768 83.789-296.070 83.789-296.070 0-39.537-26.971-55.812-49.999-62.433h216.939c0 0 59.649-1.296 59.649 48.91 0 0.034-28.006 184.843-81.993 248.353v0zM226.55 4.468c0 0 28.569 188.267 83.789 296.070h-83.234c-39.3 3.905-112.594-7.911-147.068-62.134-45.684-53.771-72.852-194.952-80.037-236.46h1.796c-1.157-6.988-1.796-10.965-1.796-10.965 0-50.24 59.573-48.9 59.573-48.9h216.968c-22.936 6.578-49.992 22.853-49.992 62.39v0z" />
<glyph unicode="&#xe942;" glyph-name="7" horiz-adv-x="1026" d="M852.892 109.774c-140.216-140.648-299.445-209.064-355.546-152.819-4.2 4.482-7.762 9.633-10.497 15.26l-0.161 0.368c-4.825 3.457-10.37 5.473-14.763 9.794-19.494 19.583-31.545 46.589-31.545 76.41s12.051 56.827 31.549 76.414l-0.004-0.004c19.474 19.556 46.42 31.657 76.194 31.657s56.72-12.101 76.19-31.654l0.004-0.004c4.753-4.753 6.986-10.73 10.658-16.060 43.898 27.721 82.013 58.235 116.4 92.49l-0.021-0.021c34.132 34.434 64.557 72.644 90.565 113.918l1.617 2.749c-5.329 3.673-11.307 5.977-15.988 10.658-19.529 19.567-31.605 46.578-31.605 76.41s12.076 56.843 31.606 76.411l-0.002-0.002c19.462 19.552 46.397 31.651 76.158 31.651s56.695-12.099 76.153-31.647l0.004-0.004c4.393-4.321 6.337-9.866 9.794-14.763 5.761-2.953 11.163-6.193 15.628-10.658 56.101-56.317-12.099-215.906-152.387-356.554zM733.417 338.427c-16.924-19.084-33.848-38.241-52.86-57.181-18.94-19.012-38.097-35.936-57.253-52.788-27.82 17.938-61.8 28.598-98.27 28.598-50.475 0-96.18-20.42-129.307-53.449l0.004 0.004c-32.883-32.957-53.217-78.448-53.217-128.687 0-46.355 17.311-88.667 45.821-120.824l-0.165 0.19-244.28 0.576c-79.434 0-143.889 47.531-143.889 128.334v658.448c0 80.731 65.463 146.194 146.266 146.266v-2.233c0.041-79.516 64.511-143.961 144.033-143.961h297.068c79.522 0 143.992 64.445 144.033 143.957v2.237h0.936c80.947 0 131.862-60.926 131.862-141.729v-129.126c-38.745-4.969-76.194-21.605-105.936-51.276-33.042-33.060-53.479-78.722-53.479-129.158 0-36.451 10.674-70.409 29.068-98.918l-0.435 0.719zM612.141 602.152h-432.1c-19.887 0-36.008-16.121-36.008-36.008s16.121-36.008 36.008-36.008v0h432.1c19.887 0 36.008 16.121 36.008 36.008s-16.121 36.008-36.008 36.008v0zM612.141 458.118h-432.1c-19.887 0-36.008-16.121-36.008-36.008s16.121-36.008 36.008-36.008h432.1c19.887 0 36.008 16.121 36.008 36.008s-16.121 36.008-36.008 36.008v0zM587.367 813.736h-294.764c-39.825 0-72.017 32.191-72.017 71.945v2.305c0 39.774 32.243 72.017 72.017 72.017h294.764c39.774 0 72.017-32.243 72.017-72.017v-2.305c0-39.734-32.211-71.945-71.945-71.945-0.025 0-0.051 0-0.076 0h0.004z" />
<glyph unicode="&#xe943;" glyph-name="51" d="M867 892.304h-700.862c-50.754 0-91.929-41.146-91.929-91.929v-700.862c0-50.754 41.145-91.929 91.929-91.929h700.862c50.754 0 91.929 41.145 91.929 91.929v700.891c-0.029 50.754-41.174 91.9-91.929 91.9zM744.085 554.195l-264.654-264.655c-1.595-1.595-3.61-2.295-5.401-3.582-0.336-0.363-0.448-0.84-0.811-1.231-16.397-16.371-42.954-16.371-59.351 0l-129.29 128.681c-14.566 14.546-14.581 38.146-0.036 52.712l0.036 0.036c18.198 18.213 47.716 18.224 65.929 0.026l0.026-0.026 93.723-93.087 241.934 241.938c14.561 14.574 42.704 18.467 61.17 0 18.218-18.19 14.942-42.624-3.275-60.812z" />
<glyph unicode="&#xe944;" d="M1024.099 447.95c0-282.797-229.252-512.050-512.050-512.050s-512.050 229.252-512.050 512.050c0 282.797 229.252 512.050 512.050 512.050s512.050-229.252 512.050-512.050z" />
<glyph unicode="&#xe945;" d="M518.491 742.872v18.234c-0.003 4.074-2.465 7.572-5.981 9.092l-0.064 0.025c-1.559 0.715-3.382 1.132-5.302 1.132s-3.743-0.417-5.383-1.165l0.081 0.033-74.226-40.928c-2.877-1.035-4.897-3.74-4.897-6.917 0-0.786 0.124-1.543 0.352-2.252l-0.014 0.052c0.533-3.902 2.801-7.184 5.988-9.086l0.057-0.032 74.226-33.397c1.559-0.715 3.382-1.132 5.302-1.132s3.743 0.417 5.383 1.165l-0.081-0.033c2.727 1.405 4.559 4.2 4.559 7.424 0 0.038 0 0.075-0.001 0.113v-0.006 19.82c147.156-0.449 266.328-119.621 266.777-266.734v-0.043c0.001-0.313 0.002-0.684 0.002-1.054 0-73.438-30.361-139.784-79.216-187.172l-0.066-0.064c-6.169-6.366-12.633-12.328-19.418-17.913l-0.402-0.321c-3.072-3.072-6.045-4.559-9.117-7.532-4.559-3.072-7.532-6.045-12.090-9.117-3.503-2.644-7.461-5.144-11.621-7.309l-0.469-0.222c-3.072-1.486-7.532-4.559-10.604-6.045-4.559-1.486-7.532-4.559-12.090-6.045-4.611-1.521-8.617-3.572-12.23-6.14l0.14 0.095c-4.559-1.486-7.532-3.072-12.090-4.559-4.856-1.501-8.863-3.048-12.741-4.826l0.651 0.267c-4.559-1.486-7.532-1.486-12.090-3.072-4.020-1.654-8.676-2.753-13.546-3.065l-0.13-0.007c-3.389-0.986-7.281-1.554-11.306-1.554-0.834 0-1.661 0.024-2.483 0.072l0.113-0.005c-4.559 0-7.532-1.486-12.090-1.486-6.407-0.989-13.798-1.554-21.321-1.554-1.563 0-3.121 0.024-4.672 0.073l0.227-0.006c-147.505 0.357-266.943 120.015-266.943 267.569 0 73.436 29.584 139.962 77.484 188.311l-0.020-0.020c2.906 3.362 4.677 7.777 4.677 12.605 0 10.673-8.652 19.324-19.324 19.324-4.828 0-9.242-1.77-12.629-4.698l0.025 0.021c-54.619-55.041-88.373-130.855-88.373-214.553 0-167.957 135.924-304.167 303.772-304.632h0.044c1.562-0.043 3.4-0.068 5.243-0.068 8.841 0 17.55 0.565 26.093 1.66l-1.012-0.106c4.559 0 9.117 1.486 13.676 1.486 6.045 1.486 10.604 1.486 16.649 3.072 4.469 1.656 9.638 2.756 15.019 3.066l0.144 0.007c4.559 1.486 9.117 1.486 13.676 3.072s9.117 3.072 15.162 4.559l13.676 4.559c4.559 1.486 9.117 4.559 13.676 6.045s9.117 4.559 13.676 6.045c4.559 3.072 7.532 4.559 12.090 7.532s9.117 4.559 13.676 7.532l13.676 9.117c3.072 3.072 7.532 4.559 10.604 7.532 68.433 56.76 111.693 141.809 111.693 236.962 0 168.625-135.857 305.518-304.085 307.194l-0.159 0.001zM509.374 589.763c-10.946 0-19.82-8.874-19.82-19.82v0-152.911c-0.035-0.367-0.055-0.793-0.055-1.224 0-2.305 0.57-4.477 1.577-6.382l-0.036 0.074c1.192-2.351 2.718-4.352 4.544-6.032l0.015-0.013 107.821-107.424c3.564-4.125 8.803-6.72 14.648-6.72 10.673 0 19.324 8.652 19.324 19.324 0 5.845-2.595 11.083-6.695 14.627l-0.025 0.021-101.577 101.577v143.695c-1.486 13.676-9.117 21.207-19.82 21.207z" />
<glyph unicode="&#xe947;" glyph-name="9" d="M334.758 951.995h-191.009c-77.065 0-141.606-63.935-141.606-141.002v-191.009c0-77.064 64.54-138.367 141.606-138.367h328.772v329.377c0 77.065-60.698 141.002-137.763 141.002zM870.517 951.995h-191.011c-77.064 0-141.432-63.935-141.432-141.002v-329.377h332.443c77.064 0 137.935 61.303 137.935 138.367v191.009c0.001 77.065-60.87 141.002-137.935 141.002zM2.142 275.236v-191.009c0-77.064 64.54-138.542 141.606-138.542h191.008c77.065 0 137.764 61.475 137.764 138.542v331.836h-328.772c-77.065 0-141.606-63.763-141.606-140.827zM870.517 416.063h-332.442v-331.836c0-77.064 64.367-138.542 141.432-138.542h191.009c77.064 0 137.935 61.475 137.935 138.542v191.009c0.001 77.064-60.87 140.827-137.935 140.827z" />
<glyph unicode="&#xe948;" d="M1024.099 447.95c0-282.797-229.252-512.050-512.050-512.050s-512.050 229.252-512.050 512.050c0 282.797 229.252 512.050 512.050 512.050s512.050-229.252 512.050-512.050z" />
<glyph unicode="&#xe949;" d="M742.556 682.52h-64.118v16.946c0 7.963-6.456 14.419-14.419 14.419s-14.419-6.456-14.419-14.419v0-16.946h-248.939v16.946c0 7.963-6.456 14.419-14.419 14.419s-14.419-6.456-14.419-14.419v0-16.946h-64.613c-23.48 0-42.514-19.034-42.514-42.514v0-392.436c0-23.48 19.034-42.514 42.514-42.514v0h435.346c23.48 0 42.514 19.034 42.514 42.514v0 392.832c-0.224 23.309-19.172 42.117-42.512 42.117-0.001 0-0.001 0-0.002 0v0zM756.232 247.174c0-7.553-6.123-13.676-13.676-13.676v0h-435.346c-7.553 0-13.676 6.123-13.676 13.676v0 290.462h462.698v-290.066zM756.232 566.078h-462.202v74.325c0 0.003 0 0.006 0 0.009 0 7.379 5.844 13.393 13.155 13.666l0.025 0.001h64.118v-19.82c0-7.963 6.456-14.419 14.419-14.419s14.419 6.456 14.419 14.419v0 19.82h249.435v-19.82c0-7.963 6.456-14.419 14.419-14.419s14.419 6.456 14.419 14.419v0 19.82h64.118c7.553 0 13.676-6.123 13.676-13.676v0-74.028z" />
<glyph unicode="&#xe94a;" d="M335.85 315.85h49.55c13.683 0 24.775 11.092 24.775 24.775s-11.092 24.775-24.775 24.775v0h-49.55c-13.683 0-24.775-11.092-24.775-24.775s11.092-24.775 24.775-24.775v0zM483.013 413.959h49.55c13.683 0 24.775 11.092 24.775 24.775s-11.092 24.775-24.775 24.775v0h-49.55c-13.683 0-24.775-11.092-24.775-24.775s11.092-24.775 24.775-24.775v0zM335.85 413.959h49.55c13.683 0 24.775 11.092 24.775 24.775s-11.092 24.775-24.775 24.775v0h-49.55c-13.683 0-24.775-11.092-24.775-24.775s11.092-24.775 24.775-24.775v0zM483.013 315.85h49.55c13.683 0 24.775 11.092 24.775 24.775s-11.092 24.775-24.775 24.775v0h-49.55c-13.683 0-24.775-11.092-24.775-24.775s11.092-24.775 24.775-24.775v0z" />
<glyph unicode="&#xe94b;" d="M632.753 318.625c2.206-2.207 5.254-3.573 8.622-3.573s6.416 1.365 8.622 3.573v0l85.424 85.721c2.213 2.222 3.581 5.287 3.581 8.671s-1.368 6.449-3.582 8.672v0c-2.206 2.207-5.254 3.573-8.622 3.573s-6.416-1.365-8.622-3.573v0l-76.802-77.1-40.235 40.631c-2.206 2.207-5.254 3.573-8.622 3.573s-6.416-1.365-8.622-3.573v0c-2.213-2.222-3.581-5.287-3.581-8.671s1.368-6.449 3.582-8.672l48.856-49.054z" />
<glyph unicode="&#xe94d;" glyph-name="11" d="M510.286 821.171c-155.983 0-282.403-123.767-282.403-276.484 0-152.696 126.42-276.481 282.403-276.481 155.985 0 282.405 123.785 282.405 276.481 0 152.717-126.42 276.484-282.405 276.484zM184.191 438.561v255.25c-3.577 0-7.118-0.146-10.621-0.423 57.871 125.631 186.763 213.123 336.756 213.123s278.888-87.492 336.757-213.124c-3.503 0.278-7.044 0.424-10.62 0.424v-255.251c72.029 0 130.462 57.148 130.462 127.624 0 47.864-26.953 89.569-66.808 111.413-56.084 157.976-209.191 271.441-389.791 271.441-180.593 0-333.696-113.458-389.784-271.428-39.868-21.84-66.813-63.554-66.813-111.426 0-70.477 58.39-127.624 130.462-127.624zM792.095 292.23c-73.795-67.425-172.863-108.712-281.809-108.712-108.743 0-207.648 41.135-281.398 108.338-131.991-66.493-218.648-184.846-218.648-345.623h1003.52c0 161.076-88.278 279.57-221.665 345.996z" />
<glyph unicode="&#xe94e;" d="M1024.099 447.95c0-282.797-229.252-512.050-512.050-512.050s-512.050 229.252-512.050 512.050c0 282.797 229.252 512.050 512.050 512.050s512.050-229.252 512.050-512.050z" />
<glyph unicode="&#xe94f;" d="M629.483 498.69c23.487 28.739 39.64 51.334 39.64 91.37 0 91.568-66.001 156.677-156.677 156.677s-157.073-65.010-157.073-156.677c0-39.64 15.856-62.73 39.64-91.37-91.568-52.82-130.515-143.992-130.515-247.75 0-77.298 189.876-78.289 247.75-78.289s247.75 1.090 247.75 78.289c0 104.55-41.126 193.74-130.515 247.75zM512.050 707.592c64.911 0 117.533-52.621 117.533-117.533s-52.621-117.533-117.533-117.533c-64.911 0-117.533 52.621-117.533 117.533v0c0.056 64.889 52.644 117.476 117.527 117.533h0.006zM512.050 211.498c-154.992 0-208.903 27.748-208.903 39.64 0 78.685 38.253 172.533 104.451 208.903 28.394-16.441 62.467-26.143 98.806-26.143 1.985 0 3.964 0.029 5.935 0.086l-0.29-0.007c37.757 0 60.154 6.739 104.451 26.063 61.244-37.856 104.451-133.289 104.451-208.903-0.099-11.793-53.91-39.64-208.903-39.64z" />
<glyph unicode="&#xe950;" d="M856.719 270.066c0-79.142-64.157-143.299-143.299-143.299s-143.299 64.157-143.299 143.299c0 79.142 64.157 143.299 143.299 143.299s143.299-64.157 143.299-143.299z" />
<glyph unicode="&#xe951;" d="M823.62 270.066c0-60.861-49.338-110.199-110.199-110.199s-110.199 49.338-110.199 110.199c0 60.861 49.338 110.199 110.199 110.199s110.199-49.338 110.199-110.199z" />
<glyph unicode="&#xe952;" d="M781.048 271.186c2.742-9.519-2.752-19.459-12.271-22.201s-19.459 2.752-22.201 12.271c-2.742 9.519 2.752 19.459 12.271 22.201s19.459-2.752 22.201-12.271z" />
<glyph unicode="&#xe953;" d="M731.551 271.244c2.742-9.519-2.752-19.459-12.271-22.201s-19.459 2.752-22.201 12.271c-2.742 9.519 2.752 19.459 12.271 22.201s19.459-2.752 22.201-12.271z" />
<glyph unicode="&#xe954;" d="M683.096 266.3c0-9.906-8.031-17.937-17.937-17.937s-17.937 8.031-17.937 17.937c0 9.906 8.031 17.937 17.937 17.937s17.937-8.031 17.937-17.937z" />
<glyph unicode="&#xe955;" d="M1024.099 447.95c0-282.797-229.252-512.050-512.050-512.050s-512.050 229.252-512.050 512.050c0 282.797 229.252 512.050 512.050 512.050s512.050-229.252 512.050-512.050z" />
<glyph unicode="&#xe956;" d="M726.502 740.791l-30.424-6.838-88.001-19.324-28.144-6.441 45.883-44.298-29.135-30.919-15.261-15.856-36.37-38.253-29.73-30.919-1.288-1.387-17.045-18.036-63.721 58.172-23.883-24.973-50.145-51.532-49.55-51.036-44.595-44.199c-6.342-6.541-12.586-13.081-18.928-19.82-0.379-0.515-0.711-1.103-0.97-1.728l-0.021-0.056 24.279-23.288c3.568-3.369 3.568-3.468 7.036 0l13.478 14.171 21.009 21.703 65.109 67.388 40.135 40.73 17.541 18.532 65.307-58.172 16.847 17.937 99.794 104.253 29.73 30.424c2.973 3.072 5.649 6.243 8.721 9.91l50.145-47.271c0.892 4.955 1.784 9.018 2.477 13.18 1.883 10.703 3.667 21.406 5.55 32.207 1.586 9.018 3.27 18.036 4.856 27.153 1.883 10.604 3.568 21.207 5.45 31.811s3.766 21.703 5.649 32.505c0.892 4.757 1.982 9.91 2.973 14.27v0.694c-1.685-0.297-3.27-0.396-4.757-0.694z" />
<glyph unicode="&#xe957;" d="M644.15 187.020h66.595v341.003h-66.595z" />
<glyph unicode="&#xe958;" d="M523.644 187.020h66.793v264.795h-66.793z" />
<glyph unicode="&#xe959;" d="M399.373 187.020h66.397v210.984h-66.397z" />
<glyph unicode="&#xe95a;" d="M288.48 187.020h66.595v144.389h-66.595z" />
<glyph unicode="&#xe95b;" d="M1024.099 447.95c0-282.797-229.252-512.050-512.050-512.050s-512.050 229.252-512.050 512.050c0 282.797 229.252 512.050 512.050 512.050s512.050-229.252 512.050-512.050z" />
<glyph unicode="&#xe95c;" d="M715.403 392.355c12.757 24.351 20.243 53.196 20.243 83.789s-7.485 59.438-20.724 84.803l0.482-1.014c-13.878 26.661-32.168 49.129-54.144 67.297l-0.361 0.29c-46.983 38.277-107.584 61.464-173.601 61.464-1.227 0-2.453-0.008-3.676-0.024l0.186 0.002c-1.038 0.014-2.263 0.022-3.491 0.022-66.017 0-126.618-23.187-174.104-61.861l0.503 0.397c-22.337-18.457-40.627-40.925-53.943-66.404l-0.562-1.182c-12.495-24.163-19.821-52.743-19.821-83.034 0-0.248 0-0.496 0.001-0.744v0.038c0.477-55.412 24.001-105.237 61.439-140.429l0.102-0.095c0.793-1.486 4.856-11 3.865-47.37-0.595-21.306-2.577-40.829-2.676-41.126l-3.369-31.811 26.757 17.541s16.946 11.099 36.072 21.901c31.514 17.838 42.316 19.82 44.595 20.315 25.16-7.798 54.084-12.289 84.058-12.289 0.167 0 0.333 0 0.5 0h-0.026c1.038-0.014 2.263-0.022 3.491-0.022 66.017 0 126.618 23.187 174.104 61.861l-0.503-0.397c22.416 18.583 40.748 41.22 54.042 66.888l0.562 1.194zM483.707 293.255c-0.157 0-0.343-0.001-0.53-0.001-27.208 0-53.451 4.13-78.137 11.797l1.864-0.499c-2.089 0.631-4.489 0.994-6.974 0.994-0.126 0-0.252-0.001-0.378-0.003h0.019c-8.027 0-22-2.775-60.055-24.379l-11.991-6.937c0 5.054 0 10.505 0.595 16.054 0.991 47.072-5.946 60.154-12.784 66.793-32.187 29.706-52.492 71.872-53.215 118.79l-0.002 0.13c0 100.586 99.1 182.443 221.588 182.443s221.588-81.857 221.588-182.443-99.397-182.344-221.588-182.344z" />
<glyph unicode="&#xe95d;" d="M843.737 434.77c-0.021 32.070-8.242 62.215-22.679 88.458l0.48-0.953c-15.147 27.603-35.094 50.713-58.941 68.988l-0.519 0.382c-2.409 1.685-5.399 2.692-8.624 2.692-8.374 0-15.162-6.788-15.162-15.162 0-4.438 1.907-8.431 4.946-11.204l0.012-0.011c20.972-15.991 38.154-35.799 50.747-58.503l0.487-0.957c11.875-21.283 18.884-46.683 18.928-73.717v-0.013c-0.724-47.048-21.029-89.214-53.104-118.817l-0.113-0.103c-6.937-6.64-13.775-19.82-12.883-66.793 0-5.55 0-11 0.595-16.054l-15.063 8.721c-8.757 5.152-19.43 10.588-30.422 15.433l-2.083 0.819c-6.693 3.782-14.698 6.011-23.223 6.011-3.001 0-5.937-0.276-8.784-0.804l0.295 0.045c-22.817-7.168-49.056-11.298-76.258-11.298-0.191 0-0.382 0-0.574 0.001h0.030c-13.541 0.012-26.836 1.021-39.828 2.955l1.477-0.181c-0.047 0.001-0.103 0.001-0.159 0.001-8.374 0-15.162-6.788-15.162-15.162 0-6.877 4.578-12.685 10.853-14.541l0.107-0.027c12.83-1.949 27.638-3.066 42.705-3.072h0.007c0.149 0 0.326 0 0.503 0 29.964 0 58.879 4.491 86.108 12.837l-2.079-0.548c2.279 0 13.081-2.477 44.595-20.315 19.027-10.802 35.874-21.802 36.072-21.901l26.757-17.541-3.468 32.406s-2.081 19.82-2.676 40.928c-0.991 36.37 3.072 45.982 3.865 47.469 37.566 34.968 61.276 84.391 62.232 139.36l0.002 0.173z" />
<glyph unicode="&#xe95e;" d="M362.805 508.6c-15.993-0.057-28.937-13.035-28.937-29.036 0-16.036 13-29.036 29.036-29.036s29.036 13 29.036 29.036c0 0.070 0 0.139-0.001 0.209v-0.011c-0.112 15.951-13.069 28.838-29.036 28.838-0.035 0-0.070 0-0.105 0h0.005z" />
<glyph unicode="&#xe95f;" d="M484.302 508.6c-15.993-0.057-28.937-13.035-28.937-29.036 0-16.036 13-29.036 29.036-29.036s29.036 13 29.036 29.036c0 0.070 0 0.139-0.001 0.209v-0.011c-0.112 15.951-13.069 28.838-29.036 28.838-0.035 0-0.070 0-0.105 0h0.005z" />
<glyph unicode="&#xe960;" d="M599.555 508.6c-15.993-0.057-28.937-13.035-28.937-29.036 0-16.036 13-29.036 29.036-29.036s29.036 13 29.036 29.036c0 0.070 0 0.139-0.001 0.209v-0.011c-0.112 15.951-13.069 28.838-29.036 28.838-0.035 0-0.070 0-0.105 0h0.005z" />
<glyph unicode="&#xe962;" glyph-name="15" d="M1000.47 510.094l-429.862 429.862c-12.381 12.593-29.599 20.396-48.639 20.396-2.437 0-4.843-0.128-7.214-0.377l0.296 0.025c-2.098 0.23-4.532 0.361-6.996 0.361-18.801 0-35.819-7.633-48.125-19.968l-0.001-0.001-428.991-429.426c-12.103-12.299-19.575-29.186-19.575-47.819 0-37.663 30.532-68.194 68.194-68.194 17.006 0 32.557 6.225 44.501 16.52l-0.088-0.074v-353.607c2.26-62.356 53.354-112.048 116.054-112.048 1.328 0 2.65 0.022 3.967 0.066l-0.192-0.005h146.846v317.004h246.849v-317.004h139.003c1.125-0.039 2.448-0.061 3.775-0.061 62.7 0 113.795 49.692 116.048 111.842l0.006 0.206v363.411l7.626-7.626c12.35-12.35 29.413-19.989 48.259-19.989 37.692 0 68.248 30.556 68.248 68.248 0 18.846-7.639 35.908-19.989 48.259v0zM736.409 917.733h35.949c36.098 0 65.362-29.263 65.362-65.362v-217.872c0-36.098-29.263-65.362-65.362-65.362h-35.949c-36.098 0-65.362 29.263-65.362 65.362v217.872c0 36.098 29.263 65.362 65.362 65.362z" />
</font>
</defs>
</svg>
